<?xml version="1.0" encoding="utf-8"?>
<!-- Generator: Adobe Illustrator 22.0.0, SVG Export Plug-In . SVG Version: 6.00 Build 0)  -->
<svg version="1.1" id="Layer_1" xmlns:svg="http://www.w3.org/2000/svg"
	 xmlns="http://www.w3.org/2000/svg" xmlns:xlink="http://www.w3.org/1999/xlink" x="0px" y="0px" viewBox="0 0 736 727"
	 style="enable-background:new 0 0 736 727;" xml:space="preserve">
<style type="text/css">
	.st0{fill:#5C81BC;}
	.st1{fill:#5C81BC;stroke:#FFFFFF;stroke-width:9.3341;}
	.st2{fill:#5C81BC;stroke:#FFFFFF;stroke-width:10;}
	.st3{fill:#5C81BC;stroke:#000000;stroke-width:5;stroke-opacity:0;}
</style>
<g>
	<g id="svg_1" transform="matrix(0.967667,0,0,0.967667,-138.804,-261.437) ">
		<circle id="svg_2" class="st0" cx="237.4" cy="547.3" r="72.7"/>
		<path id="svg_3" class="st0" d="M331.3,728.1c0-98.7-42.1-118.2-93.9-118.2s-93.9,19.4-93.9,118.2s42.1,178.8,93.9,178.8
			S331.3,826.9,331.3,728.1z"/>
		<polygon id="svg_4" class="st0" points="190.9,752.3 190.9,752.3 190.9,752.3 		"/>
	</g>
	<g id="svg_5" transform="matrix(1.32959,0,0,1.32959,166.508,-630.962) ">
		<circle id="svg_6" class="st0" cx="237.4" cy="547.3" r="72.7"/>
		<path id="svg_7" class="st0" d="M331.3,728.1c0-98.7-42.1-118.2-93.9-118.2s-93.9,19.4-93.9,118.2s42.1,178.8,93.9,178.8
			S331.3,826.9,331.3,728.1z"/>
		<polygon id="svg_8" class="st0" points="190.9,752.3 190.9,752.3 190.9,752.3 		"/>
	</g>
	<g id="svg_9" transform="matrix(1.07135,0,0,1.07135,-11.0398,-400.881) ">
		<path id="svg_10" class="st1" d="M271.9,582.3c-73.4,0-132.9,189.2-132.9,302.9c0,1,0,1.9,0.1,2.9h265.6c0-1,0.1-1.9,0.1-2.9
			C404.8,771.5,345.3,582.3,271.9,582.3L271.9,582.3L271.9,582.3z"/>
		<circle id="svg_11" class="st0" cx="271.9" cy="514" r="87.9"/>
		<polygon id="svg_12" class="st0" points="225.4,783.7 225.4,783.7 225.4,783.7 		"/>
	</g>
	<g id="svg_13" transform="matrix(1,0,0,1,-4.10014,-317.034) ">
		<circle id="svg_14" class="st2" cx="653.9" cy="694.8" r="56.9"/>
		<g id="svg_15" transform="matrix(0.64776639,0,0,0.64776639,753.87472,481.24331) ">
			<path id="svg_16" class="st0" d="M-154.3,398.1c-73.4,0-132.9,189.2-132.9,302.9c0,1,0,1.9,0.1,2.9h265.6c0-1,0.1-1.9,0.1-2.9
				C-21.4,587.3-80.9,398.1-154.3,398.1L-154.3,398.1z"/>
			<polygon id="svg_17" class="st0" points="-200.8,599.4 -200.8,599.4 -200.8,599.4 			"/>
		</g>
	</g>
	<title  stroke="null">Ebene 1</title>
	<rect id="svg_18" x="219" y="515.3" class="st3" width="121" height="211"/>
	<rect id="svg_21" x="426" y="516.3" class="st3" width="121" height="210"/>
	<rect id="svg_22" x="56" y="568.5" class="st3" width="66" height="159"/>
	<rect id="svg_23" x="617.5" y="569" class="st3" width="66" height="159"/>
</g>
</svg>
