<?xml version="1.0" encoding="utf-8"?>
<!-- Generator: Adobe Illustrator 22.0.0, SVG Export Plug-In . SVG Version: 6.00 Build 0)  -->
<svg version="1.1" id="Layer_1" xmlns="http://www.w3.org/2000/svg" xmlns:xlink="http://www.w3.org/1999/xlink" x="0px" y="0px"
	 viewBox="0 0 337.1 145.6" style="enable-background:new 0 0 337.1 145.6;" xml:space="preserve">
<style type="text/css">
	.st0{fill:#020202;}
	.st1{fill:#5C81BC;}
	.st2{fill:#395F84;}
	.st3{fill:#E2E2E2;stroke:#020202;stroke-width:2;stroke-miterlimit:10;}
	.st4{font-family:'BerlinSansFB-Reg';}
	.st5{font-size:54.3901px;}
	.st6{fill:#009ac0;}
</style>
<g>
	<g>
		<polygon class="st0" points="0.4,8 337.6,8 230.7,69.9 105.4,69.9 61.5,44 		"/>
		<polygon class="st1" points="31.9,14.6 306.1,14.6 219.2,63.3 117.3,63.3 		"/>
		<polyline class="st0" points="122.7,46.1 76.7,51.5 61.5,42.5 		"/>
		<polyline class="st0" points="212.8,46.1 258.8,51.5 274,42.5 		"/>
		<polygon class="st0" points="105.2,27.2 50,32.6 31.9,23.6 		"/>
		<polyline class="st0" points="232.8,27.2 288,32.6 306.1,23.6 		"/>
		<g>
			<path class="st2" d="M215.3,10.7h-92.7c-0.6,4.2-0.9,8.6-0.9,13.1c0,16.4,4.2,31.4,11.2,43h72.1c7-11.6,11.2-26.6,11.2-43
				C216.3,19.3,216,14.9,215.3,10.7C215.3,10.7,215.3,10.7,215.3,10.7z"/>
			<path class="st2" d="M58.7,11.4c26,5.2,65.7,8.5,110.3,8.5s84.3-3.3,110.3-8.5H58.7z"/>
		</g>
		<rect x="117.3" y="63.3" class="st0" width="102.3" height="6.1"/>
		<rect x="24.8" y="8" class="st0" width="283.7" height="6.6"/>
		<g>
			<circle class="st3" cx="169" cy="38.9" r="38.1"/>
			<text transform="matrix(1 0 0 1 150.6627 56.3008)" class="st4 st5">G</text>
		</g>
	</g>
	<g>
		<g>
			<path d="M122,114.8c0,0.3-0.1,0.5-0.5,0.5c-0.2,0-0.8-0.1-1.9-0.4c-1-0.3-1.7-0.4-1.9-0.5c-2.4,0.9-4.7,1.4-6.9,1.4
				c-3.5,0-6.4-1.2-8.7-3.5c-2.2-2.3-3.3-5.2-3.3-8.8c0-3.6,1.1-6.6,3.2-9c2.2-2.5,5.1-3.7,8.7-3.7c1.7,0,3.4,0.3,4.9,1
				c1.7,0.7,3,1.8,3.9,3.1c0.2,0.3,0.3,0.5,0.3,0.6c0,0.4-0.5,1.2-1.5,2.5c-1,1.3-1.7,1.9-2,1.9c-0.1,0-0.3-0.2-0.8-0.7
				c-0.6-0.6-1.1-1-1.7-1.3c-0.9-0.5-1.8-0.7-2.9-0.7c-1.7,0-3.1,0.6-4.1,1.9c-0.9,1.2-1.4,2.6-1.4,4.4c0,1.9,0.5,3.3,1.5,4.4
				c1,1.1,2.4,1.7,4.3,1.7c1.2,0,2.5-0.3,3.9-0.9c0-0.4-0.1-1.3-0.3-2.9c-0.1-1.2-0.2-2.1-0.2-2.9c0-0.2,0.1-0.3,0.2-0.4
				c0.1,0,0.1,0,0.3,0c0.3,0,0.8,0,1.5,0.1c0.7,0.1,1.2,0.1,1.5,0.1c0.4,0,0.9,0,1.6-0.1c0.7-0.1,1.3-0.1,1.6-0.1
				c0.3,0,0.4,0.2,0.4,0.6c0,0.5,0,1.4-0.1,2.5c-0.1,1.1-0.1,1.9-0.1,2.5c0,1.5,0.1,3.7,0.3,6.6L122,114.8z"/>
			<path d="M131.4,102.7c0,1.3,0,3.4,0.1,6.1s0.1,4.7,0.1,6.1c0,0.2-0.1,0.4-0.2,0.4c0,0-0.2,0-0.4,0.1c-0.7,0.1-1.7,0.1-3,0.1
				c-1.7,0-2.7,0-3.2-0.1c-0.3-0.1-0.5-0.2-0.5-0.5c0,0.2,0.1-0.8,0.2-3c0.2-4.6,0.3-7.6,0.3-9.1c0-1.2,0-3-0.1-5.5
				c-0.1-2.4-0.1-4.3-0.1-5.5c0-0.3,0.1-0.4,0.4-0.4c0.4,0,0.9,0,1.6,0.1s1.2,0.1,1.6,0.1s0.9,0,1.6-0.1c0.7,0,1.2-0.1,1.6-0.1
				c0.3,0,0.5,0.1,0.5,0.4c0,1.2-0.1,3-0.2,5.5C131.4,99.7,131.4,101.5,131.4,102.7z"/>
			<path d="M154.8,111.5c0,0.2-0.1,0.4-0.4,0.7c-2.1,2.5-4.9,3.7-8.4,3.7c-3.6,0-6.4-1.2-8.6-3.6c-2.2-2.3-3.2-5.3-3.2-8.9
				c0-3.5,1.1-6.4,3.2-8.8c2.2-2.5,5-3.8,8.4-3.8c3.7,0,6.6,1.1,8.7,3.4c0.2,0.3,0.3,0.5,0.3,0.7c0,0.2-0.4,1-1.2,2.4
				c-0.8,1.4-1.3,2.2-1.5,2.3c-0.1,0.1-0.2,0.1-0.3,0.1c-0.1,0-0.3-0.2-0.9-0.7c-0.6-0.5-1.2-1-1.8-1.3c-0.9-0.5-1.8-0.7-2.8-0.7
				c-1.7,0-3,0.6-4,1.9c-0.9,1.2-1.4,2.6-1.4,4.3c0,1.7,0.5,3.2,1.4,4.4c1,1.3,2.3,1.9,4,1.9c1,0,1.9-0.2,2.8-0.6
				c0.6-0.3,1.2-0.7,1.8-1.2c0.5-0.4,0.8-0.6,0.8-0.6c0.1,0,0.2,0.1,0.3,0.2c0.2,0.2,0.7,0.9,1.5,2.1
				C154.4,110.7,154.8,111.3,154.8,111.5z"/>
			<path d="M179.2,114.9c0,0.2-0.1,0.3-0.4,0.4c-0.3,0.1-1.4,0.1-3.2,0.1c-1.6,0-2.7,0-3.1-0.1c-0.4-0.1-0.6-0.3-0.7-0.8
				c-0.4-1.6-0.7-2.5-0.9-2.6c-0.2-0.1-1.7-0.1-4.6-0.1c-1.9,0-3,0.1-3.1,0.2c-0.2,0.2-0.4,0.8-0.6,1.8c-0.2,0.9-0.5,1.5-0.8,1.5
				c-0.4,0.1-1.7,0.1-3.9,0.1c-1.7,0-2.6-0.2-2.6-0.5c0-0.3,1.3-3.9,3.9-10.9c2.8-7.6,4.3-11.7,4.5-12.5c0.1-0.4,0.3-0.6,0.5-0.6
				c0.3,0,0.8,0,1.4,0.1c0.6,0.1,1.1,0.1,1.4,0.1c0.3,0,0.8,0,1.4-0.1c0.6,0,1-0.1,1.3-0.1c0.2,0,0.4,0.2,0.6,0.6
				c0.6,1.2,2.2,5.3,4.9,12.3C177.9,110.9,179.2,114.6,179.2,114.9z M167.1,99.3c-0.2,0.5-0.6,1.6-1.2,3.3c-0.6,1.8-0.9,2.8-0.9,3.1
				c0,0.2,0.3,0.3,1,0.3c0.4,0,0.9,0,1.7,0c0.8,0,1.2-0.1,1.2-0.3c0-0.1,0-0.1,0-0.2c0-0.4-0.3-1.4-0.8-3.1
				C167.7,100.8,167.3,99.8,167.1,99.3z"/>
			<path class="st6" d="M201.2,108c0,2.1-0.7,3.8-2,5.2c-1.5,1.6-4.1,2.4-7.9,2.4c-0.3,0-0.7,0-1.2,0c-0.5,0-1,0-1.2,0
				c-4.2,0-6.7-0.1-7.5-0.3c-0.3-0.1-0.5-0.2-0.5-0.5c0-1.2,0.1-3.1,0.2-5.5c0.1-2.5,0.2-4.3,0.2-5.6c0-1.3-0.1-3.8-0.2-7.5
				c0-0.9-0.1-2.3-0.2-4.2l0-0.2c0-0.2,0.2-0.3,0.5-0.4c0.4,0,1.7-0.1,4-0.1c3.6,0,5.8,0,6.4,0c2.8,0.1,4.9,0.6,6.2,1.4
				c1.8,1.1,2.6,2.9,2.6,5.5c0,0.7-0.2,1.4-0.6,2.1c-0.3,0.5-0.7,1.1-1.2,1.6c-0.4,0.5-0.6,0.7-0.6,0.7c0,0.1,0.1,0.2,0.4,0.4
				c0.8,0.5,1.4,1.2,1.9,2.2C200.9,106,201.2,106.9,201.2,108z M193.8,98.3c0-1-0.5-1.6-1.5-1.9c-0.5-0.2-1.4-0.3-2.7-0.3
				c-1.2,0-1.8,0.1-1.8,0.3c0,0.2,0,0.5-0.1,1c0,0.4-0.1,0.8-0.1,1c0,1.1,0.1,1.8,0.3,1.9c0.1,0.1,0.8,0.2,2.2,0.2
				C192.6,100.4,193.8,99.7,193.8,98.3z M194.3,107.9c0-1-0.4-1.7-1.3-2.1c-0.5-0.2-1.4-0.3-2.7-0.3c-1.5,0-2.3,0.1-2.4,0.2
				c-0.1,0.1-0.2,0.8-0.2,2.1c0,1.3,0.1,2.1,0.2,2.2c0.1,0.1,1,0.2,2.5,0.2c1.2,0,2.1-0.1,2.6-0.3
				C193.9,109.5,194.3,108.9,194.3,107.9z"/>
			<path class="st6" d="M223.7,106.9c0,2.9-0.3,4.9-1,5.9c-1.3,1.9-4.5,2.9-9.6,2.9c-2.3,0-4.1-0.2-5.3-0.5c-2-0.6-3.3-1.7-3.9-3.3
				c-0.3-0.8-0.4-2.2-0.4-4.2c0-0.5,0-1.2,0.1-2.1c0-0.9,0.1-1.6,0.1-2.1c0-1.3-0.1-3.3-0.2-5.9c-0.1-2.6-0.2-4.6-0.2-5.9
				c0-0.3,0.1-0.4,0.4-0.4c0.7,0,1.7,0,3.2,0.1c1.4,0.1,2.5,0.1,3.2,0.1c0.3,0,0.4,0.1,0.4,0.4c0,1.5,0,3.8-0.1,6.8
				s-0.1,5.3-0.1,6.8c0,1.8,0.2,3,0.6,3.6c0.5,0.9,1.5,1.3,3.1,1.3c2.3,0,3.5-1.1,3.5-3.4c0-1.7,0-4.1-0.1-7.4
				c-0.1-3.3-0.1-5.8-0.1-7.4c0-0.4,0.1-0.5,0.4-0.5c0.7,0,1.7,0,3-0.1c1.4-0.1,2.4-0.1,3-0.1c0.3,0,0.5,0.1,0.5,0.4
				c0,1.3-0.1,3.3-0.2,5.9c-0.1,2.6-0.2,4.6-0.2,5.9c0,0.4,0,0.9,0,1.6C223.7,106,223.7,106.6,223.7,106.9z"/>
			<path class="st6" d="M238.8,107.5c0,2.3-1,4.3-2.9,5.9c-1.7,1.5-3.8,2.4-6.2,2.8c-0.1,0-0.2,0-0.2,0c-0.3,0-0.8-0.8-1.7-2.4
				c-0.9-1.6-1.4-2.6-1.4-2.9c0-0.1,0.1-0.2,0.3-0.2c1.7-0.4,2.7-0.7,3.3-1c1.2-0.6,1.8-1.5,1.8-2.6c0-0.7-0.4-1.6-1.2-2.5
				c-1.3-1.5-2.1-2.4-2.2-2.6c-0.8-1.2-1.2-2.5-1.2-3.9c0-2.1,1-3.8,2.9-5.2c1.6-1.1,3.5-1.9,5.8-2.2c0.1,0,0.2,0,0.3,0
				c0.2,0,0.3,0.1,0.4,0.4c0.3,0.8,1,2.3,2.1,4.5c0,0.1,0.1,0.1,0.1,0.2c0,0.2-0.1,0.3-0.3,0.3c-0.1,0-0.2,0-0.5-0.1
				c-0.2,0-0.4-0.1-0.5-0.1c-0.8,0-1.5,0.2-2.2,0.6c-0.7,0.4-1.1,1-1.1,1.8c0,0.7,0.4,1.5,1.2,2.6c1.4,1.8,2.2,2.8,2.3,2.9
				C238.3,105,238.8,106.2,238.8,107.5z"/>
		</g>
		<g>
			<path d="M96.1,138.9c0,0.1,0,0.3-0.1,0.6c-0.1,0.3-0.1,0.5-0.1,0.6c0,0.3-0.1,0.7-0.2,1.3c0,0.1-0.1,0.2-0.3,0.2
				c-0.1,0-0.2,0-0.5,0c-1-0.1-2.6-0.2-4.7-0.2c-0.6,0-1.5,0-2.7,0s-2.1,0-2.7,0c-0.3,0-0.4-0.1-0.4-0.4c0-0.9,0.1-2.3,0.2-4.1
				c0.1-1.8,0.2-3.2,0.2-4.1c0-0.9,0-2.7-0.1-5.2c0-0.7-0.1-1.6-0.1-2.9l0-0.2c0-0.2,0.1-0.3,0.3-0.3c0.6,0,1.4,0,2.6,0
				c1.1,0,2,0,2.6,0c0.5,0,1.4,0,2.4,0c1.1,0,1.9,0,2.4,0c0.4,0,0.6,0.1,0.6,0.4c0.2,1.1,0.3,1.7,0.3,2c0,0.2-0.1,0.3-0.3,0.3
				c-0.7,0-1.7,0-3.1-0.1c-1.4-0.1-2.5-0.1-3.2-0.1c-0.7,0-1.1,0.1-1.3,0.3c-0.2,0.2-0.3,0.6-0.3,1.3v1.8c0,0.5,0,0.8,0,0.9
				c0.1,0.3,0.3,0.4,0.6,0.4c0.1,0,0.2,0,0.4,0c0.2,0,0.3,0,0.4,0c1.6,0,3,0,4.3-0.1c0.5,0,1.1-0.1,1.8-0.1c0.2,0,0.3,0.1,0.3,0.2
				c0,0.3,0,0.7-0.1,1.2c-0.1,0.5-0.1,0.9-0.1,1.2c0,0.1-0.1,0.2-0.4,0.2c-0.1,0-0.5,0-1.1-0.1c-0.5,0-1.5-0.1-3.1-0.1
				c-1.3,0-2.2,0-2.6,0c-0.3,0-0.5,0.2-0.6,0.5c0-0.1,0,0.3,0,0.9v1.8c0,0.8,0.1,1.4,0.4,1.6c0.2,0.2,0.7,0.3,1.5,0.3l1.3,0
				c0.6,0,2.2-0.1,4.8-0.3l0.2,0C96,138.6,96.1,138.7,96.1,138.9z"/>
			<path d="M108.7,141.1c0,0.2-0.1,0.3-0.2,0.3c-0.3,0-0.7,0-1.2,0c-0.5,0-0.9,0-1.2,0c-0.1,0-0.2-0.1-0.2-0.4c0-0.4,0-1,0-1.8
				s0-1.4,0-1.8c0-0.3,0-0.8,0-1.5c0-0.6,0-1.1,0-1.5c0-0.9-0.1-1.6-0.4-2c-0.3-0.5-0.9-0.7-1.8-0.7c-0.4,0-1,0.2-1.7,0.7
				c-0.8,0.5-1.1,0.9-1.1,1.3v7.3c0,0.2-0.1,0.3-0.2,0.3c-0.3,0-0.7,0-1.2,0c-0.5,0-0.9,0-1.2,0c-0.2,0-0.3-0.1-0.3-0.3
				c0-0.6,0-1.6,0-2.9s0-2.3,0-2.9c0-1.7-0.2-3.3-0.5-4.8c0-0.1,0-0.1,0-0.2c0-0.1,0.1-0.1,0.2-0.2c0.1,0,0.5-0.1,1.4-0.2
				s1.3-0.2,1.4-0.2c0,0,0.1,0.1,0.1,0.2c0,0.5,0.1,1,0.3,1.5c0.4-0.3,1-0.7,1.7-1.2c0.9-0.5,1.7-0.8,2.5-0.8c1.5,0,2.6,0.4,3.1,1.3
				c0.4,0.7,0.6,1.7,0.6,3.2c0,0.3,0,0.6,0,1.2c0,0.5,0,0.9,0,1.2c0,0.5,0,1.4,0,2.4S108.7,140.5,108.7,141.1z"/>
			<path d="M117.9,139.1c0,0.2,0,0.4,0,0.7c0,0.4-0.1,0.6-0.1,0.7c0,0.1,0,0.2,0,0.3c0,0.1-0.1,0.1-0.2,0.2
				c-0.7,0.3-1.7,0.5-3.1,0.5c-1.9,0-2.9-0.9-2.9-2.6c0-0.7,0-1.7,0-3.1c0-1.4,0-2.4,0-3.1c0-0.3-0.2-0.5-0.5-0.5
				c-0.3,0-0.6,0-0.9,0c-0.2,0-0.3-0.4-0.3-1c0-0.2,0-0.5,0-0.7c0-0.2,0.2-0.3,0.4-0.4c0.2,0,0.4,0,0.6,0c0.4,0,0.6-0.2,0.6-0.5
				c0-0.3,0-0.8,0-1.5c0-0.7,0-1.2,0-1.5c0-0.6,0.1-0.9,0.3-0.9c0.1,0,0.8,0.1,2.3,0.4c0.2,0,0.3,0.1,0.3,0.3c0,0.4,0,0.9-0.1,1.6
				c-0.1,0.7-0.1,1.3-0.1,1.6c0,0.2,0.1,0.4,0.3,0.4h2.9c0.1,0,0.2,0,0.2,0.1s0,0.3,0,0.5c0,0.2,0,0.4,0,0.5c0,0.1,0,0.3,0,0.6
				s0,0.4,0,0.6c0,0.2-0.1,0.2-0.3,0.2c-0.3,0-0.8,0-1.5-0.1s-1.2-0.1-1.5-0.1c-0.1,0-0.1,0.2-0.1,0.7c0,0.6-0.1,1.4-0.1,2.4v1.8
				c0,0.7,0.1,1.2,0.2,1.5c0.2,0.4,0.6,0.6,1.2,0.6c0.3,0,0.6-0.1,1.1-0.2c0.5-0.1,0.9-0.2,1.1-0.2
				C117.8,138.9,117.9,138.9,117.9,139.1z"/>
			<path d="M126.6,129.9c0,0.9-0.1,1.7-0.2,2.4c0,0.2-0.1,0.3-0.2,0.3c-0.2,0-0.4,0-0.8-0.1c-0.3,0-0.6-0.1-0.8-0.1
				c-1,0-1.7,0.3-2,0.9c-0.2,0.3-0.3,1.1-0.3,2.2v1.3c0,0.5,0,1.1,0.1,2.1c0,0.9,0.1,1.6,0.1,2.1c0,0.2-0.1,0.3-0.3,0.3
				c-0.3,0-0.6,0-1.1,0c-0.5,0-0.9,0-1.1,0c-0.2,0-0.3-0.1-0.3-0.3c0-0.7,0-1.7,0-3c0-1.3,0-2.3,0-3c0-2-0.2-3.6-0.6-4.8
				c0-0.1,0-0.1,0-0.1c0-0.1,0.1-0.2,0.2-0.2c0.3,0,0.7-0.1,1.3-0.1c0.9-0.2,1.3-0.2,1.2-0.2c0.1,0,0.2,0.2,0.3,0.7
				c0,0.5,0.1,0.7,0.2,0.7c0,0,0,0,0.1,0c0.3-0.2,0.7-0.4,1-0.6c0.4-0.2,0.7-0.4,1.1-0.5c0.3-0.1,0.7-0.1,1.2-0.1
				C126.3,129.6,126.6,129.7,126.6,129.9z"/>
			<path d="M139,135.4c0,1.7-0.6,3.2-1.7,4.4c-1.1,1.2-2.6,1.9-4.2,1.9c-1.7,0-3.1-0.6-4.2-1.9c-1.1-1.2-1.7-2.6-1.7-4.3
				c0-1.7,0.6-3.2,1.7-4.3c1.1-1.2,2.6-1.8,4.2-1.8c1.7,0,3.1,0.6,4.2,1.8C138.4,132.3,139,133.7,139,135.4z M136.4,135.4
				c0-1-0.3-1.8-0.9-2.5c-0.6-0.7-1.4-1.1-2.4-1.1s-1.8,0.4-2.4,1.1c-0.6,0.7-0.9,1.6-0.9,2.6c0,1,0.3,1.8,0.9,2.5
				c0.7,0.8,1.5,1.1,2.4,1.1c1,0,1.8-0.4,2.4-1.1C136.1,137.2,136.4,136.4,136.4,135.4z"/>
			<path d="M152,130.3c0,0.6,0,1.5-0.1,2.7s-0.1,2.1-0.1,2.7c0,0.6,0,1.5,0.1,2.7c0,1.2,0.1,2.1,0.1,2.7c0,0.2-0.1,0.3-0.2,0.3
				c-0.1,0-0.9,0-2.5,0c-0.1,0-0.2-0.3-0.2-0.9c0-0.6-0.1-0.9-0.1-0.9c0,0-0.1,0-0.2,0.1c-1.4,1.2-2.7,1.8-4,1.8c-1.8,0-3-0.7-3.6-2
				c-0.4-0.8-0.5-2.3-0.5-4.3c0-1.9,0.2-3.5,0.5-4.8c0.1-0.3,0.2-0.5,0.4-0.5c0.2,0,0.6,0,1.1,0c0.5,0,0.8,0,1.1,0
				c0.2,0,0.2,0.1,0.2,0.3c0,0.3-0.1,0.8-0.2,1.6c-0.1,0.8-0.2,1.3-0.2,1.7c0,0.5,0,1,0,1.6c0,1.4,0.1,2.4,0.3,2.9
				c0.3,0.9,1.1,1.3,2.3,1.3c0.5,0,1.1-0.3,1.8-0.8c0.7-0.5,1.1-1,1.1-1.5c0-0.6,0.1-2.8,0.1-6.4c0-0.4,0.2-0.6,0.5-0.6h2
				C151.9,129.8,152,130,152,130.3z"/>
			<path d="M162.7,128.9c0,1.2-0.4,2.2-1,3.1c-0.1,0.1-0.8,0.8-2,2c-0.7,0.7-1.2,1.4-1.2,2.1c0,0.2,0,0.4,0,0.5
				c0,0.1-0.2,0.2-0.4,0.3c-0.2,0.1-0.4,0.1-0.5,0.1c-0.4,0-0.7,0-0.7,0c-0.2-0.1-0.3-0.3-0.3-0.6c0-1,0.2-1.8,0.5-2.3
				c0.5-0.7,1.1-1.4,1.6-2.1c0.6-0.8,1-1.7,1-2.4c0-0.8-0.2-1.4-0.7-1.8s-1-0.7-1.8-0.7c-0.6,0-1.3,0.2-2,0.6
				c-0.7,0.4-1.1,0.6-1.1,0.6c-0.3,0-0.4-0.8-0.4-2.3c0-0.1,0.1-0.3,0.4-0.4c1.3-0.9,2.6-1.3,4-1.3c1.4,0,2.5,0.4,3.4,1.3
				C162.3,126.4,162.7,127.5,162.7,128.9z M159.2,140c0,0.5-0.2,0.9-0.5,1.2c-0.3,0.3-0.7,0.5-1.1,0.5c-0.4,0-0.8-0.2-1.1-0.5
				c-0.3-0.3-0.4-0.7-0.4-1.2c0-0.5,0.1-0.8,0.4-1.2c0.3-0.3,0.7-0.5,1.1-0.5c0.5,0,0.8,0.2,1.1,0.5
				C159.1,139.1,159.2,139.5,159.2,140z"/>
			<path d="M184.2,138.5c0,0.1-0.1,0.2-0.2,0.4c-1.6,1.8-3.6,2.8-5.9,2.8c-2.4,0-4.4-0.9-5.9-2.7c-1.4-1.7-2.1-3.7-2.1-6.2
				s0.7-4.6,2.1-6.3c1.5-1.8,3.4-2.7,5.9-2.7c2.5,0,4.4,0.8,5.7,2.5c0.1,0.2,0.2,0.3,0.2,0.4c0,0.1-0.2,0.5-0.6,1.2
				c-0.4,0.7-0.7,1-0.8,1c-0.1,0-0.4-0.2-0.7-0.6c-0.5-0.5-0.9-0.9-1.4-1.1c-0.7-0.4-1.5-0.6-2.3-0.6c-1.6,0-2.9,0.6-3.8,1.8
				c-0.8,1.1-1.2,2.5-1.2,4.2c0,1.7,0.4,3.1,1.2,4.2c0.9,1.3,2.1,1.9,3.7,1.9c0.8,0,1.6-0.2,2.3-0.6c0.5-0.3,1-0.6,1.5-1.1
				c0.4-0.4,0.7-0.6,0.7-0.6c0,0,0.3,0.3,0.8,1C184,138.1,184.2,138.4,184.2,138.5z"/>
			<path d="M196.2,140.9c0,0.3-0.1,0.5-0.3,0.5c-0.3,0-0.6,0-1.1,0c-0.5,0-0.9,0-1.1,0c-0.2,0-0.3-0.1-0.3-0.4c0-0.4,0-1,0-1.8
				c0-0.8,0-1.4,0-1.8c0-0.4,0-0.9,0-1.7c0-0.8,0-1.3,0-1.7c0-1.5-0.7-2.2-2.1-2.2c-0.4,0-1,0.2-1.8,0.7c-0.8,0.5-1.2,0.9-1.2,1.3
				v7.3c0,0.2-0.1,0.4-0.3,0.4c-0.3,0-0.6,0-1.1,0c-0.5,0-0.9,0-1.1,0c-0.2,0-0.3-0.1-0.3-0.3v-5.9c0-1-0.1-3-0.2-6.1
				c0-1-0.1-2.4-0.2-4.3c0-0.1,0-0.2,0-0.2c0-0.1,0-0.2,0.1-0.3c0.1,0,0.6-0.1,1.4-0.1c0.2,0,0.4,0,0.8-0.1c0.3-0.1,0.6-0.1,0.7-0.1
				c0.1,0,0.2,0.1,0.2,0.2c0,0.8,0,1.9-0.1,3.4c-0.1,1.5-0.1,2.7-0.1,3.4c0,0.2,0,0.3,0.1,0.3c0.4-0.3,1-0.8,1.6-1.3
				c0.8-0.5,1.6-0.7,2.5-0.7c1.5,0,2.6,0.5,3.2,1.4c0.4,0.7,0.6,1.7,0.6,3.2c0,0.3,0,0.6,0,1.2c0,0.5,0,0.9,0,1.2c0,0.5,0,1.3,0,2.3
				C196.2,139.6,196.2,140.4,196.2,140.9z"/>
			<path d="M208.9,134.8c0,0.6-0.3,1-0.8,1.2c-0.3,0.1-2.9,0.4-7.6,0.7c0.1,0.7,0.5,1.3,1.2,1.8c0.7,0.5,1.4,0.7,2.1,0.7
				c1.3,0,2.5-0.4,3.5-1.2c0.1-0.1,0.3-0.2,0.4-0.3c0.1,0,0.1,0,0.1,0c0,0,0.2,0.3,0.5,0.8c0.3,0.5,0.4,0.8,0.4,0.9
				c0,0-0.1,0.1-0.2,0.3c-1.2,1.3-2.7,1.9-4.6,1.9c-1.9,0-3.4-0.6-4.5-1.7c-1.1-1.1-1.7-2.6-1.7-4.5c0-1.7,0.5-3.1,1.6-4.4
				c1.1-1.3,2.5-1.9,4.2-1.9c1.5,0,2.8,0.6,3.8,1.7C208.4,131.9,208.9,133.2,208.9,134.8z M206,134c0-0.7-0.3-1.3-0.8-1.8
				c-0.5-0.5-1.1-0.8-1.8-0.8c-0.7,0-1.4,0.3-2,0.9c-0.6,0.6-0.9,1.3-0.9,2c0,0.2,0.1,0.3,0.4,0.3c1.2,0,2.6-0.1,4.3-0.4
				C205.7,134.2,206,134.1,206,134z"/>
			<path d="M221.3,130c0,1,0,2.4,0,4.4c0,2,0,3.4,0,4.4c0,1.9-0.4,3.4-1.2,4.3c-0.9,1-2.3,1.5-4.2,1.5c-1.8,0-3.3-0.3-4.5-1
				c-0.2-0.1-0.3-0.2-0.3-0.3c0,0.1,0.1-0.5,0.4-1.8c0-0.1,0.1-0.2,0.2-0.2c0,0,0.1,0,0.2,0.1c1.2,0.7,2.4,1,3.7,1
				c0.8,0,1.5-0.2,2-0.5c0.6-0.4,0.9-1,0.9-1.8c0-0.2,0-0.6,0-1.1c-0.9,1.1-2.1,1.6-3.4,1.6c-1.5,0-2.7-0.5-3.7-1.6
				c-0.9-1-1.4-2.3-1.4-3.8c0-1.5,0.4-2.9,1.3-3.9c1-1.2,2.2-1.7,3.7-1.7c1.3,0,2.4,0.5,3.2,1.5c0.1,0.2,0.2,0.3,0.3,0.3
				c0.1,0,0.1-0.1,0.1-0.2c0-0.1,0-0.3,0-0.5c0-0.2,0-0.4,0-0.5c0-0.5,0-0.7,0.1-0.7c0.1,0,0.5,0.1,1.3,0.2s1.2,0.2,1.3,0.3
				C221.3,129.7,221.3,129.8,221.3,130z M218.4,135c0-0.9-0.2-1.7-0.7-2.3c-0.5-0.7-1.3-1-2.1-1c-0.9,0-1.6,0.4-2.1,1.1
				c-0.5,0.6-0.7,1.4-0.7,2.3c0,0.9,0.3,1.7,0.8,2.3c0.5,0.7,1.3,1,2.1,1c0.9,0,1.6-0.3,2.1-1C218.1,136.6,218.4,135.9,218.4,135z"
				/>
			<path d="M234.6,135.4c0,1.7-0.6,3.2-1.7,4.4c-1.1,1.2-2.6,1.9-4.2,1.9c-1.7,0-3.1-0.6-4.2-1.9c-1.1-1.2-1.7-2.6-1.7-4.3
				c0-1.7,0.6-3.2,1.7-4.3c1.1-1.2,2.6-1.8,4.2-1.8c1.7,0,3.1,0.6,4.2,1.8C234.1,132.3,234.6,133.7,234.6,135.4z M232.1,135.4
				c0-1-0.3-1.8-0.9-2.5c-0.6-0.7-1.4-1.1-2.4-1.1s-1.8,0.4-2.4,1.1c-0.6,0.7-0.9,1.6-0.9,2.6c0,1,0.3,1.8,0.9,2.5
				c0.7,0.8,1.5,1.1,2.4,1.1c1,0,1.8-0.4,2.4-1.1C231.8,137.2,232.1,136.4,232.1,135.4z"/>
			<path d="M247.7,130.3c0,0.6,0,1.5-0.1,2.7s-0.1,2.1-0.1,2.7c0,0.6,0,1.5,0.1,2.7c0,1.2,0.1,2.1,0.1,2.7c0,0.2-0.1,0.3-0.2,0.3
				c-0.1,0-0.9,0-2.5,0c-0.1,0-0.2-0.3-0.2-0.9c0-0.6-0.1-0.9-0.1-0.9c0,0-0.1,0-0.2,0.1c-1.4,1.2-2.7,1.8-4,1.8c-1.8,0-3-0.7-3.6-2
				c-0.4-0.8-0.5-2.3-0.5-4.3c0-1.9,0.2-3.5,0.5-4.8c0.1-0.3,0.2-0.5,0.4-0.5c0.2,0,0.6,0,1.1,0c0.5,0,0.8,0,1.1,0
				c0.2,0,0.2,0.1,0.2,0.3c0,0.3-0.1,0.8-0.2,1.6c-0.1,0.8-0.2,1.3-0.2,1.7c0,0.5,0,1,0,1.6c0,1.4,0.1,2.4,0.3,2.9
				c0.3,0.9,1.1,1.3,2.3,1.3c0.5,0,1.1-0.3,1.8-0.8c0.7-0.5,1.1-1,1.1-1.5c0-0.6,0.1-2.8,0.1-6.4c0-0.4,0.2-0.6,0.5-0.6h2
				C247.5,129.8,247.7,130,247.7,130.3z"/>
			<path d="M253.5,139.9c0,0.5-0.1,0.9-0.4,1.2s-0.7,0.5-1.2,0.5s-0.9-0.2-1.2-0.5c-0.3-0.3-0.4-0.7-0.4-1.2c0-0.5,0.1-0.9,0.4-1.2
				s0.7-0.5,1.1-0.5c0.5,0,0.9,0.2,1.2,0.5C253.4,139,253.5,139.4,253.5,139.9z M253.5,127.3c0,2.1-0.2,3.9-0.5,5.7
				c-0.1,0.6-0.3,1.6-0.5,2.9c0,0.3-0.2,0.5-0.6,0.5c-0.2,0-0.4,0-0.5,0c-0.1,0-0.2-0.2-0.3-0.4c-0.5-2.4-0.7-4-0.7-4.7v-6.6
				c0-0.3,0-0.5,0.1-0.5c0.1,0,0.4,0,0.7,0.1s0.5,0.1,0.7,0.1s0.4,0,0.7-0.1c0.3,0,0.5-0.1,0.7-0.1c0.1,0,0.2,0.2,0.2,0.5
				c0,0.3,0,0.8,0,1.3C253.5,126.6,253.5,127,253.5,127.3z"/>
		</g>
	</g>
</g>
</svg>
