<?xml version="1.0" encoding="utf-8"?>
<!-- Generator: Adobe Illustrator 22.0.0, SVG Export Plug-In . SVG Version: 6.00 Build 0)  -->
<svg version="1.1" id="Layer_1" xmlns="http://www.w3.org/2000/svg" xmlns:xlink="http://www.w3.org/1999/xlink" x="0px" y="0px"
	 viewBox="0 0 300 150" style="enable-background:new 0 0 300 150;" xml:space="preserve">
<style type="text/css">
	.st0{fill:#D1D1D1;}
	.st1{fill:#E2E2E2;}
	.st2{fill:url(#SVGID_1_);}
	.st3{fill:#1A1A1A;}
	.st4{fill:url(#SVGID_2_);}
	.st5{fill:url(#SVGID_3_);}
	.st6{fill:url(#SVGID_4_);}
	.st7{fill:url(#SVGID_5_);}
	.st8{fill:url(#SVGID_6_);}
	.st9{fill:url(#SVGID_7_);}
	.st10{fill:url(#SVGID_8_);}
	.st11{fill:url(#SVGID_9_);}
	.st12{fill:url(#SVGID_10_);}
	.st13{fill:url(#SVGID_11_);}
	.st14{fill:url(#SVGID_12_);}
	.st15{fill:url(#SVGID_13_);}
	.st16{fill:url(#SVGID_14_);}
	.st17{fill:url(#SVGID_15_);}
	.st18{fill:url(#SVGID_16_);}
	.st19{fill:url(#SVGID_17_);}
	.st20{fill:#5C81BC;}
	.st21{fill:url(#SVGID_18_);}
	.st22{fill:#B2B2B2;}
	.st23{fill:#395F84;}
	.st24{fill:#2E4D66;}
	.st25{fill:url(#SVGID_19_);}
	.st26{fill:url(#SVGID_20_);}
	.st27{fill:url(#SVGID_21_);}
	.st28{fill:url(#SVGID_22_);}
	.st29{fill:url(#SVGID_23_);}
	.st30{fill:#D6D6D6;}
	.st31{fill:#CECECE;}
	.st32{fill:#606060;}
	.st33{fill:#191919;}
	.st34{opacity:0.6;fill:#191919;}
	.st35{opacity:0.5;}
	.st36{clip-path:url(#SVGID_25_);}
	.st37{fill:url(#SVGID_26_);}
	.st38{fill:url(#SVGID_27_);}
	.st39{fill:#E1E1E1;}
	.st40{fill:url(#SVGID_28_);}
	.st41{fill:#464942;}
	.st42{fill:#636363;}
	.st43{fill:url(#SVGID_29_);}
	.st44{fill:url(#SVGID_30_);}
	.st45{opacity:0.5;fill:url(#SVGID_31_);}
	.st46{opacity:0.5;fill:url(#SVGID_32_);}
	.st47{opacity:0.5;fill:url(#SVGID_33_);}
	.st48{opacity:0.5;fill:url(#SVGID_34_);}
	.st49{fill:#707070;}
	.st50{fill:url(#SVGID_35_);}
	.st51{fill:url(#SVGID_36_);}
	.st52{fill:url(#SVGID_37_);}
	.st53{fill:#020202;}
	.st54{fill:#99B3DE;}
	.st55{fill:#708CB5;}
	.st56{fill:#FFFFFF;stroke:#020202;stroke-width:2;stroke-miterlimit:10;}
</style>
<image style="overflow:visible;opacity:0.5;" width="300" height="40" xlink:href="ABA07FC4.png"  transform="matrix(1 0 0 1 1 110)">
</image>
<path class="st0" d="M243.3,24.1c0,0,30.5-3.2,36.2-2.4c5.7,0.8,10.2,6.3,9.9,26.9c-4.7,1.6-8.6,0.1-9.8-8.5
	c-1.2-8.6-3.9-14.3-7.4-14.3c-3.5,0-28.9,0.9-28.9,0.9V24.1z"/>
<path class="st1" d="M245.9,23.4c0,0,27.8-2.4,33.5-1.7c5.7,0.8,10.2,6.3,9.9,26.9c-4.7,1.6-6.4-0.1-7.6-8.7c-1.2-8.6-3.9-17-7.4-17
	c-3.5,0-31.1,1.3-31.1,1.3L245.9,23.4z"/>
<linearGradient id="SVGID_1_" gradientUnits="userSpaceOnUse" x1="-14.4833" y1="43.3779" x2="-10.8985" y2="28.2595" gradientTransform="matrix(-1 0 0 1 274.4272 0)">
	<stop  offset="0" style="stop-color:#FF9D00"/>
	<stop  offset="0.1153" style="stop-color:#FFA500"/>
	<stop  offset="0.2979" style="stop-color:#FFBC00"/>
	<stop  offset="0.4892" style="stop-color:#FFDB00"/>
	<stop  offset="0.6096" style="stop-color:#FFD300"/>
	<stop  offset="0.8002" style="stop-color:#FFBC00"/>
	<stop  offset="1" style="stop-color:#FF9D00"/>
</linearGradient>
<path class="st2" d="M284.9,30.7c-0.4-1.3,0.2-2.7,1.4-3c0.1,0,0.2,0,0.3-0.1c1.5,3.3,2.4,8.2,2.7,15.4c-0.1,0-0.3,0.1-0.4,0.1
	c-1.2,0-2.2-1.1-2.3-2.4C286.3,36.7,286,34.7,284.9,30.7z"/>
<path class="st3" d="M35.5,84.4C87.9,88,144.5,70.7,189.4,102c6.4,5,8.2,15.1,8.7,25.4c-53.7-6-172-21-174.1-21.7
	c-3.8-1.3-3.8-6.2-3.6-10.6C20.4,93.4,27.1,89.3,35.5,84.4z"/>
<g>
	
		<linearGradient id="SVGID_2_" gradientUnits="userSpaceOnUse" x1="236.0365" y1="95.7812" x2="236.0365" y2="121.2416" gradientTransform="matrix(-1 0 0 1 274.4272 0)">
		<stop  offset="0" style="stop-color:#1A1A1A"/>
		<stop  offset="0.1922" style="stop-color:#1D1D1D"/>
		<stop  offset="0.3318" style="stop-color:#262626"/>
		<stop  offset="0.4548" style="stop-color:#363636"/>
		<stop  offset="0.5676" style="stop-color:#4C4C4C"/>
		<stop  offset="0.6183" style="stop-color:#595959"/>
		<stop  offset="0.7072" style="stop-color:#515151"/>
		<stop  offset="0.848" style="stop-color:#3A3A3A"/>
		<stop  offset="1" style="stop-color:#1A1A1A"/>
	</linearGradient>
	<path class="st4" d="M37.7,95.8c4.9,0.1,9.1,5.7,9.5,12.6c0.3,6.3-2.6,11.4-6.8,12.3h0h0c-0.4,0.1-0.9,0.1-1.4,0.1c0,0-0.1,0-0.1,0
		l-4.9,0.4l1.9-1.2c-3.5-1.8-6.1-6.4-6.4-11.8C29.2,101.3,32.8,95.7,37.7,95.8z"/>
	<g>
		
			<radialGradient id="SVGID_3_" cx="249.2983" cy="119.4269" r="9.5779" gradientTransform="matrix(-0.932 9.078094e-02 0.1253 1.2862 250.3873 -67.0761)" gradientUnits="userSpaceOnUse">
			<stop  offset="0" style="stop-color:#1A1A1A"/>
			<stop  offset="0.3108" style="stop-color:#1D1D1D"/>
			<stop  offset="0.5366" style="stop-color:#262626"/>
			<stop  offset="0.7356" style="stop-color:#363636"/>
			<stop  offset="0.9181" style="stop-color:#4C4C4C"/>
			<stop  offset="1" style="stop-color:#595959"/>
		</radialGradient>
		<path class="st5" d="M24.2,109.1c0.4,6.9,4.6,12.6,9.5,12.6c4.9,0.1,8.5-5.5,8.2-12.4c-0.4-6.9-4.6-12.6-9.5-12.6
			C27.5,96.6,23.8,102.2,24.2,109.1z"/>
		
			<radialGradient id="SVGID_4_" cx="250.6047" cy="119.4273" r="5.6162" gradientTransform="matrix(-0.9332 7.779854e-02 0.1112 1.3341 252.3537 -69.6713)" gradientUnits="userSpaceOnUse">
			<stop  offset="0" style="stop-color:#777777"/>
			<stop  offset="0.348" style="stop-color:#747474"/>
			<stop  offset="0.6005" style="stop-color:#6B6B6B"/>
			<stop  offset="0.8226" style="stop-color:#5B5B5B"/>
			<stop  offset="0.8441" style="stop-color:#595959"/>
			<stop  offset="0.8594" style="stop-color:#616161"/>
			<stop  offset="0.8835" style="stop-color:#787878"/>
			<stop  offset="0.9135" style="stop-color:#9D9D9D"/>
			<stop  offset="0.9247" style="stop-color:#ADADAD"/>
			<stop  offset="0.9457" style="stop-color:#AAAAAA"/>
			<stop  offset="0.9609" style="stop-color:#A1A1A1"/>
			<stop  offset="0.9744" style="stop-color:#919191"/>
			<stop  offset="0.9867" style="stop-color:#7A7A7A"/>
			<stop  offset="0.9983" style="stop-color:#5E5E5E"/>
			<stop  offset="1" style="stop-color:#595959"/>
		</radialGradient>
		<path class="st6" d="M26.5,109.1c0.2,4.1,2.7,7.4,5.6,7.5c2.9,0,5.1-3.3,4.8-7.4c-0.2-4.1-2.7-7.4-5.6-7.5
			C28.5,101.7,26.3,105,26.5,109.1z"/>
		
			<radialGradient id="SVGID_5_" cx="251.2805" cy="119.4273" r="2.7082" gradientTransform="matrix(-0.9332 7.779854e-02 0.1112 1.3341 252.3515 -69.7239)" gradientUnits="userSpaceOnUse">
			<stop  offset="0" style="stop-color:#777777"/>
			<stop  offset="0.3214" style="stop-color:#747474"/>
			<stop  offset="0.5546" style="stop-color:#6B6B6B"/>
			<stop  offset="0.7598" style="stop-color:#5B5B5B"/>
			<stop  offset="0.7796" style="stop-color:#595959"/>
			<stop  offset="0.7908" style="stop-color:#616161"/>
			<stop  offset="0.8085" style="stop-color:#787878"/>
			<stop  offset="0.8304" style="stop-color:#9D9D9D"/>
			<stop  offset="0.8387" style="stop-color:#ADADAD"/>
			<stop  offset="0.8836" style="stop-color:#AAAAAA"/>
			<stop  offset="0.9163" style="stop-color:#A1A1A1"/>
			<stop  offset="0.9451" style="stop-color:#919191"/>
			<stop  offset="0.9716" style="stop-color:#7A7A7A"/>
			<stop  offset="0.9964" style="stop-color:#5E5E5E"/>
			<stop  offset="1" style="stop-color:#595959"/>
		</radialGradient>
		<path class="st7" d="M28.6,109.1c0.1,2,1.3,3.6,2.7,3.6c1.4,0,2.4-1.6,2.3-3.5c-0.1-2-1.3-3.6-2.7-3.6
			C29.6,105.6,28.5,107.2,28.6,109.1z"/>
	</g>
</g>
<g>
	
		<linearGradient id="SVGID_6_" gradientUnits="userSpaceOnUse" x1="99.0058" y1="99.2458" x2="99.0058" y2="143.5819" gradientTransform="matrix(-1 0 0 1 274.4272 0)">
		<stop  offset="0" style="stop-color:#1A1A1A"/>
		<stop  offset="0.1922" style="stop-color:#1D1D1D"/>
		<stop  offset="0.3318" style="stop-color:#262626"/>
		<stop  offset="0.4548" style="stop-color:#363636"/>
		<stop  offset="0.5676" style="stop-color:#4C4C4C"/>
		<stop  offset="0.6183" style="stop-color:#595959"/>
		<stop  offset="0.7072" style="stop-color:#515151"/>
		<stop  offset="0.848" style="stop-color:#3A3A3A"/>
		<stop  offset="1" style="stop-color:#1A1A1A"/>
	</linearGradient>
	<path class="st8" d="M174.2,99.2c8.5,0.1,15.9,9.9,16.6,22c0.6,10.9-4.6,19.9-11.8,21.4h0l0,0c-0.8,0.2-1.6,0.2-2.4,0.2
		c-0.1,0-0.1,0-0.2,0l-8.5,0.8l3.3-2.2c-6-3.1-10.6-11.2-11.1-20.5C159.4,108.8,165.7,99.2,174.2,99.2z"/>
	<g>
		
			<radialGradient id="SVGID_7_" cx="107.2217" cy="132.913" r="16.6786" gradientTransform="matrix(-0.932 9.078094e-02 0.1253 1.2862 249.3245 -58.8954)" gradientUnits="userSpaceOnUse">
			<stop  offset="0" style="stop-color:#1A1A1A"/>
			<stop  offset="0.3108" style="stop-color:#1D1D1D"/>
			<stop  offset="0.5366" style="stop-color:#262626"/>
			<stop  offset="0.7356" style="stop-color:#363636"/>
			<stop  offset="0.9181" style="stop-color:#4C4C4C"/>
			<stop  offset="1" style="stop-color:#595959"/>
		</radialGradient>
		<path class="st9" d="M150.7,121.6c0.6,12,8.1,21.9,16.6,22c8.5,0.1,14.9-9.6,14.2-21.6c-0.6-12-8.1-21.9-16.6-22
			C156.4,99.9,150,109.6,150.7,121.6z"/>
		
			<radialGradient id="SVGID_8_" cx="109.4969" cy="132.9128" r="9.7796" gradientTransform="matrix(-0.9332 7.779854e-02 0.1112 1.3341 251.3105 -64.0573)" gradientUnits="userSpaceOnUse">
			<stop  offset="0" style="stop-color:#777777"/>
			<stop  offset="0.348" style="stop-color:#747474"/>
			<stop  offset="0.6005" style="stop-color:#6B6B6B"/>
			<stop  offset="0.8226" style="stop-color:#5B5B5B"/>
			<stop  offset="0.8441" style="stop-color:#595959"/>
			<stop  offset="0.8594" style="stop-color:#616161"/>
			<stop  offset="0.8835" style="stop-color:#787878"/>
			<stop  offset="0.9135" style="stop-color:#9D9D9D"/>
			<stop  offset="0.9247" style="stop-color:#ADADAD"/>
			<stop  offset="0.9457" style="stop-color:#AAAAAA"/>
			<stop  offset="0.9609" style="stop-color:#A1A1A1"/>
			<stop  offset="0.9744" style="stop-color:#919191"/>
			<stop  offset="0.9867" style="stop-color:#7A7A7A"/>
			<stop  offset="0.9983" style="stop-color:#5E5E5E"/>
			<stop  offset="1" style="stop-color:#595959"/>
		</radialGradient>
		<path class="st10" d="M154.8,121.7c0.4,7.1,4.8,13,9.8,13c5,0.1,8.8-5.7,8.4-12.8c-0.4-7.1-4.8-13-9.8-13
			C158.2,108.8,154.4,114.6,154.8,121.7z"/>
		
			<radialGradient id="SVGID_9_" cx="110.6725" cy="132.9132" r="4.7151" gradientTransform="matrix(-0.9332 7.779854e-02 0.1112 1.3341 251.3067 -64.1489)" gradientUnits="userSpaceOnUse">
			<stop  offset="0" style="stop-color:#777777"/>
			<stop  offset="0.3214" style="stop-color:#747474"/>
			<stop  offset="0.5546" style="stop-color:#6B6B6B"/>
			<stop  offset="0.7598" style="stop-color:#5B5B5B"/>
			<stop  offset="0.7796" style="stop-color:#595959"/>
			<stop  offset="0.7908" style="stop-color:#616161"/>
			<stop  offset="0.8085" style="stop-color:#787878"/>
			<stop  offset="0.8304" style="stop-color:#9D9D9D"/>
			<stop  offset="0.8387" style="stop-color:#ADADAD"/>
			<stop  offset="0.8836" style="stop-color:#AAAAAA"/>
			<stop  offset="0.9163" style="stop-color:#A1A1A1"/>
			<stop  offset="0.9451" style="stop-color:#919191"/>
			<stop  offset="0.9716" style="stop-color:#7A7A7A"/>
			<stop  offset="0.9964" style="stop-color:#5E5E5E"/>
			<stop  offset="1" style="stop-color:#595959"/>
		</radialGradient>
		<path class="st11" d="M158.4,121.7c0.2,3.4,2.3,6.2,4.7,6.3c2.4,0,4.2-2.7,4.1-6.2c-0.2-3.4-2.3-6.2-4.7-6.3
			C160.1,115.5,158.2,118.3,158.4,121.7z"/>
	</g>
</g>
<g>
	
		<linearGradient id="SVGID_10_" gradientUnits="userSpaceOnUse" x1="34.1608" y1="95.2689" x2="34.1608" y2="139.604" gradientTransform="matrix(-1 0 0 1 274.4272 0)">
		<stop  offset="0" style="stop-color:#1A1A1A"/>
		<stop  offset="0.1922" style="stop-color:#1D1D1D"/>
		<stop  offset="0.3318" style="stop-color:#262626"/>
		<stop  offset="0.4548" style="stop-color:#363636"/>
		<stop  offset="0.5676" style="stop-color:#4C4C4C"/>
		<stop  offset="0.6183" style="stop-color:#595959"/>
		<stop  offset="0.7072" style="stop-color:#515151"/>
		<stop  offset="0.848" style="stop-color:#3A3A3A"/>
		<stop  offset="1" style="stop-color:#1A1A1A"/>
	</linearGradient>
	<path class="st12" d="M239.1,95.3c8.5,0.1,15.9,9.9,16.6,22c0.6,10.9-4.6,19.9-11.8,21.4h0l0,0c-0.8,0.2-1.6,0.2-2.4,0.2
		c-0.1,0-0.1,0-0.2,0l-8.5,0.8l3.3-2.2c-6-3.1-10.6-11.2-11.1-20.5C224.2,104.9,230.6,95.2,239.1,95.3z"/>
	<g>
		
			<radialGradient id="SVGID_11_" cx="37.972" cy="128.6649" r="16.6785" gradientTransform="matrix(-0.932 9.078094e-02 0.1253 1.2862 250.1621 -51.123)" gradientUnits="userSpaceOnUse">
			<stop  offset="0" style="stop-color:#1A1A1A"/>
			<stop  offset="0.3108" style="stop-color:#1D1D1D"/>
			<stop  offset="0.5366" style="stop-color:#262626"/>
			<stop  offset="0.7356" style="stop-color:#363636"/>
			<stop  offset="0.9181" style="stop-color:#4C4C4C"/>
			<stop  offset="1" style="stop-color:#595959"/>
		</radialGradient>
		<path class="st13" d="M215.5,117.7c0.6,12,8.1,21.9,16.6,22c8.5,0.1,14.9-9.6,14.2-21.6c-0.6-12-8.1-21.9-16.6-22
			C221.2,95.9,214.9,105.6,215.5,117.7z"/>
		
			<radialGradient id="SVGID_12_" cx="40.2469" cy="128.6654" r="9.7794" gradientTransform="matrix(-0.9332 7.779854e-02 0.1112 1.3341 252.0072 -56.9803)" gradientUnits="userSpaceOnUse">
			<stop  offset="0" style="stop-color:#777777"/>
			<stop  offset="0.348" style="stop-color:#747474"/>
			<stop  offset="0.6005" style="stop-color:#6B6B6B"/>
			<stop  offset="0.8226" style="stop-color:#5B5B5B"/>
			<stop  offset="0.8441" style="stop-color:#595959"/>
			<stop  offset="0.8594" style="stop-color:#616161"/>
			<stop  offset="0.8835" style="stop-color:#787878"/>
			<stop  offset="0.9135" style="stop-color:#9D9D9D"/>
			<stop  offset="0.9247" style="stop-color:#ADADAD"/>
			<stop  offset="0.9457" style="stop-color:#AAAAAA"/>
			<stop  offset="0.9609" style="stop-color:#A1A1A1"/>
			<stop  offset="0.9744" style="stop-color:#919191"/>
			<stop  offset="0.9867" style="stop-color:#7A7A7A"/>
			<stop  offset="0.9983" style="stop-color:#5E5E5E"/>
			<stop  offset="1" style="stop-color:#595959"/>
		</radialGradient>
		<path class="st14" d="M219.6,117.7c0.4,7.1,4.8,13,9.8,13c5,0.1,8.8-5.7,8.4-12.8c-0.4-7.1-4.8-13-9.8-13
			C223,104.8,219.3,110.6,219.6,117.7z"/>
		
			<radialGradient id="SVGID_13_" cx="41.4227" cy="128.6654" r="4.7153" gradientTransform="matrix(-0.9332 7.779854e-02 0.1112 1.3341 252.0034 -57.0718)" gradientUnits="userSpaceOnUse">
			<stop  offset="0" style="stop-color:#777777"/>
			<stop  offset="0.3214" style="stop-color:#747474"/>
			<stop  offset="0.5546" style="stop-color:#6B6B6B"/>
			<stop  offset="0.7598" style="stop-color:#5B5B5B"/>
			<stop  offset="0.7796" style="stop-color:#595959"/>
			<stop  offset="0.7908" style="stop-color:#616161"/>
			<stop  offset="0.8085" style="stop-color:#787878"/>
			<stop  offset="0.8304" style="stop-color:#9D9D9D"/>
			<stop  offset="0.8387" style="stop-color:#ADADAD"/>
			<stop  offset="0.8836" style="stop-color:#AAAAAA"/>
			<stop  offset="0.9163" style="stop-color:#A1A1A1"/>
			<stop  offset="0.9451" style="stop-color:#919191"/>
			<stop  offset="0.9716" style="stop-color:#7A7A7A"/>
			<stop  offset="0.9964" style="stop-color:#5E5E5E"/>
			<stop  offset="1" style="stop-color:#595959"/>
		</radialGradient>
		<path class="st15" d="M223.3,117.8c0.2,3.4,2.3,6.2,4.7,6.3c2.4,0,4.2-2.7,4.1-6.2c-0.2-3.4-2.3-6.2-4.7-6.3
			C224.9,111.6,223.1,114.3,223.3,117.8z"/>
	</g>
</g>
<g>
	
		<linearGradient id="SVGID_14_" gradientUnits="userSpaceOnUse" x1="212.9992" y1="97.2544" x2="212.9992" y2="125.0379" gradientTransform="matrix(-1 0 0 1 274.4272 0)">
		<stop  offset="0" style="stop-color:#1A1A1A"/>
		<stop  offset="0.1922" style="stop-color:#1D1D1D"/>
		<stop  offset="0.3318" style="stop-color:#262626"/>
		<stop  offset="0.4548" style="stop-color:#363636"/>
		<stop  offset="0.5676" style="stop-color:#4C4C4C"/>
		<stop  offset="0.6183" style="stop-color:#595959"/>
		<stop  offset="0.7072" style="stop-color:#515151"/>
		<stop  offset="0.848" style="stop-color:#3A3A3A"/>
		<stop  offset="1" style="stop-color:#1A1A1A"/>
	</linearGradient>
	<path class="st16" d="M60.7,97.3c5.3,0.1,10,6.2,10.4,13.8c0.4,6.8-2.9,12.4-7.4,13.4h0h0c-0.5,0.1-1,0.2-1.5,0.1c0,0-0.1,0-0.1,0
		l-5.4,0.5l2.1-1.4c-3.8-2-6.6-7-7-12.9C51.4,103.3,55.4,97.2,60.7,97.3z"/>
	<g>
		
			<radialGradient id="SVGID_15_" cx="225.2204" cy="121.3403" r="10.4518" gradientTransform="matrix(-0.932 9.078094e-02 0.1253 1.2862 250.2538 -65.5595)" gradientUnits="userSpaceOnUse">
			<stop  offset="0" style="stop-color:#1A1A1A"/>
			<stop  offset="0.3108" style="stop-color:#1D1D1D"/>
			<stop  offset="0.5366" style="stop-color:#262626"/>
			<stop  offset="0.7356" style="stop-color:#363636"/>
			<stop  offset="0.9181" style="stop-color:#4C4C4C"/>
			<stop  offset="1" style="stop-color:#595959"/>
		</radialGradient>
		<path class="st17" d="M45.9,110.9c0.4,7.5,5.1,13.7,10.4,13.8c5.3,0.1,9.3-6,8.9-13.6c-0.4-7.5-5.1-13.7-10.4-13.8
			C49.5,97.2,45.5,103.3,45.9,110.9z"/>
		
			<radialGradient id="SVGID_16_" cx="226.646" cy="121.3407" r="6.1285" gradientTransform="matrix(-0.9332 7.779854e-02 0.1112 1.3341 252.2184 -68.5685)" gradientUnits="userSpaceOnUse">
			<stop  offset="0" style="stop-color:#777777"/>
			<stop  offset="0.348" style="stop-color:#747474"/>
			<stop  offset="0.6005" style="stop-color:#6B6B6B"/>
			<stop  offset="0.8226" style="stop-color:#5B5B5B"/>
			<stop  offset="0.8441" style="stop-color:#595959"/>
			<stop  offset="0.8594" style="stop-color:#616161"/>
			<stop  offset="0.8835" style="stop-color:#787878"/>
			<stop  offset="0.9135" style="stop-color:#9D9D9D"/>
			<stop  offset="0.9247" style="stop-color:#ADADAD"/>
			<stop  offset="0.9457" style="stop-color:#AAAAAA"/>
			<stop  offset="0.9609" style="stop-color:#A1A1A1"/>
			<stop  offset="0.9744" style="stop-color:#919191"/>
			<stop  offset="0.9867" style="stop-color:#7A7A7A"/>
			<stop  offset="0.9983" style="stop-color:#5E5E5E"/>
			<stop  offset="1" style="stop-color:#595959"/>
		</radialGradient>
		<path class="st18" d="M48.5,110.9c0.2,4.5,3,8.1,6.1,8.1c3.2,0,5.5-3.6,5.3-8c-0.2-4.5-3-8.1-6.2-8.1
			C50.6,102.8,48.3,106.4,48.5,110.9z"/>
		
			<radialGradient id="SVGID_17_" cx="227.3832" cy="121.3407" r="2.955" gradientTransform="matrix(-0.9332 7.779854e-02 0.1112 1.3341 252.216 -68.6258)" gradientUnits="userSpaceOnUse">
			<stop  offset="0" style="stop-color:#777777"/>
			<stop  offset="0.3214" style="stop-color:#747474"/>
			<stop  offset="0.5546" style="stop-color:#6B6B6B"/>
			<stop  offset="0.7598" style="stop-color:#5B5B5B"/>
			<stop  offset="0.7796" style="stop-color:#595959"/>
			<stop  offset="0.7908" style="stop-color:#616161"/>
			<stop  offset="0.8085" style="stop-color:#787878"/>
			<stop  offset="0.8304" style="stop-color:#9D9D9D"/>
			<stop  offset="0.8387" style="stop-color:#ADADAD"/>
			<stop  offset="0.8836" style="stop-color:#AAAAAA"/>
			<stop  offset="0.9163" style="stop-color:#A1A1A1"/>
			<stop  offset="0.9451" style="stop-color:#919191"/>
			<stop  offset="0.9716" style="stop-color:#7A7A7A"/>
			<stop  offset="0.9964" style="stop-color:#5E5E5E"/>
			<stop  offset="1" style="stop-color:#595959"/>
		</radialGradient>
		<path class="st19" d="M50.8,110.9c0.1,2.2,1.4,3.9,3,3.9c1.5,0,2.7-1.7,2.5-3.9c-0.1-2.2-1.4-3.9-3-3.9
			C51.8,107,50.7,108.8,50.8,110.9z"/>
	</g>
</g>
<path class="st20" d="M189.4,102C144.5,70.8,87.9,88,35.5,84.5C49.3,76.4,67.6,66.2,68,61.5c0.7-7.5-1-17.7,4.1-19
	c5.1-1.3,81.2-23.5,120.3-30.8c39.1-7.2,63.1-0.7,69.7,7.5c6.6,8.2,18,45.9,22.1,71.8c2.9,18.5,2.6,20.1,2.1,35
	c0,0-24.4,3.7-62.9,3.7c-2.5,0-11.9-0.9-25.4-2.4C197.6,117.2,195.8,107,189.4,102z"/>
<linearGradient id="SVGID_18_" gradientUnits="userSpaceOnUse" x1="15.0556" y1="97.6746" x2="35.479" y2="11.5407" gradientTransform="matrix(-1 0 0 1 274.4272 0)">
	<stop  offset="0" style="stop-color:#2B2B2B"/>
	<stop  offset="0.2216" style="stop-color:#2E2E2E"/>
	<stop  offset="0.4127" style="stop-color:#383939"/>
	<stop  offset="0.5925" style="stop-color:#494A4B"/>
	<stop  offset="0.7655" style="stop-color:#616264"/>
	<stop  offset="0.932" style="stop-color:#7F8184"/>
	<stop  offset="1" style="stop-color:#8E9093"/>
</linearGradient>
<path class="st21" d="M217.5,14.7c7.9-2.4,26.5-1.9,33.1-1.2c2.6,0.3,5,0.8,7.1,1.6c1.7,1.2,3.2,2.6,4.4,4.2c2.3,2.8,5,7.2,7.8,13.4
	c3.8,9.2,8.8,23.7,12.3,43.8c0.4,2.4,0.8,4.9,1.1,7.5c0.1,2.3-0.1,6.7-3.6,7.4c-4.7,0.9-29.7,1.7-40.4-1.3c-10.7-3-11-5.8-12.9-16.4
	c-1.9-10.7-7.5-39.2-10.5-45.2C213,22.4,209.7,17.1,217.5,14.7z"/>
<path class="st22" d="M217.5,14.7c7.9-2.4,26.5-1.9,33.1-1.2c2.6,0.3,5,0.8,7.1,1.6c1.7,1.2,3.2,2.6,4.4,4.2c2.3,2.8,5,7.2,7.8,13.4
	c0.5,1.3,1.1,2.7,1.6,4.1c-6.5-5.3-16.8-7.3-23.7-3.7c1.6,10.6,5.8,37.7,9.3,59c-6.8-0.2-13.5-0.8-17.8-2c-10.7-3-11-5.8-12.9-16.4
	c-1.9-10.7-7.5-39.2-10.5-45.2C213,22.4,209.7,17.1,217.5,14.7z"/>
<path class="st23" d="M245.6,10.9c0,0-21.5-0.9-51.5,1c-16.4,1.6-163,35.4-163,35.4l7.3-4.7c0,0,108.6-31.4,147.1-37.3
	C224-0.7,240.3,3.6,245.6,10.9z"/>
<g>
	<path class="st24" d="M180.7,6c1.7-0.3,3.3-0.6,4.8-0.8c38.5-5.9,54.8-1.6,60.1,5.7c0,0-18.7-0.5-40.6,0.4
		C201,6.2,195.3,4.6,180.7,6z"/>
</g>
<path class="st20" d="M15.2,101.5c0.2-4.4,2-32.4,2.6-40c0.7-7.5-0.1-10.8,5-12.1c5.1-1.3,96.1-26.1,135.2-33.3
	c39.1-7.2,41-5.2,47.6,3c6.6,8.2,14,43.5,16.3,64.5c2.1,19.7,1.5,50,1.5,50s-16.8-2-40.7-5c0.2-1.8,0.3-3.6,0.2-5.6
	c-0.7-13.3-8.9-24.1-18.3-24.2c-9.4-0.1-16.4,10.6-15.7,23.9c0,0.6,0.1,1.2,0.2,1.8c-27.6-3.4-58.1-7.1-82.7-10.2
	c0.1-1,0.1-2.1,0.1-3.2c-0.4-8.2-5.5-15-11.4-15c-5.8-0.1-10.2,6.6-9.7,14.8c0,0.2,0,0.5,0.1,0.7c-0.9-0.1-1.8-0.2-2.7-0.4
	c0-0.7,0.1-1.4,0-2.2c-0.4-7.3-4.9-13.3-10.1-13.4c-5.2-0.1-9,5.8-8.7,13.1c-3.2-0.4-5.1-0.7-5.4-0.9
	C14.7,106.8,15,105.9,15.2,101.5z"/>
<linearGradient id="SVGID_19_" gradientUnits="userSpaceOnUse" x1="89.8887" y1="33.6877" x2="89.8887" y2="124.3064" gradientTransform="matrix(-1 0 0 1 200.9178 0)">
	<stop  offset="0" style="stop-color:#E2E2E2"/>
	<stop  offset="0.3334" style="stop-color:#DCDCDC"/>
	<stop  offset="0.7783" style="stop-color:#CBCBCB"/>
	<stop  offset="1" style="stop-color:#C0C0C0"/>
</linearGradient>
<path class="st25" d="M70.7,36.5c3.6-0.9,7.3-1.9,11.1-2.9c20.3,11,38.3,25.3,52.6,44c7.6,9.5,12.9,19.9,17,30.7
	c-1.8,3.9-2.8,8.8-2.5,14.1c0,0.6,0.1,1.2,0.2,1.8c-6.5-0.8-13.1-1.6-19.7-2.4C118,88,103.8,51.8,70.7,36.5z"/>
<linearGradient id="SVGID_20_" gradientUnits="userSpaceOnUse" x1="116.5608" y1="40.6597" x2="116.5608" y2="122.7389" gradientTransform="matrix(-1 0 0 1 200.9178 0)">
	<stop  offset="0" style="stop-color:#E2E2E2"/>
	<stop  offset="0.3334" style="stop-color:#DCDCDC"/>
	<stop  offset="0.7783" style="stop-color:#CBCBCB"/>
	<stop  offset="1" style="stop-color:#C0C0C0"/>
</linearGradient>
<path class="st26" d="M57.8,39.9c2.9-0.8,5.9-1.5,9-2.4c28.3,17,35.5,51.3,44.1,82.1c-6.7-0.8-13.4-1.7-19.9-2.5
	C88.1,87.6,84.6,54.7,57.8,39.9z"/>
<linearGradient id="SVGID_21_" gradientUnits="userSpaceOnUse" x1="159.4344" y1="26.8639" x2="155.3664" y2="80.637" gradientTransform="matrix(-1 0 0 1 274.4272 0)">
	<stop  offset="0" style="stop-color:#2B2B2B"/>
	<stop  offset="0.2831" style="stop-color:#3D3D3E"/>
	<stop  offset="0.8556" style="stop-color:#6C6D6F"/>
	<stop  offset="1" style="stop-color:#797A7D"/>
</linearGradient>
<path class="st27" d="M200.3,80.4C193.2,65.6,184.7,54.1,145,57c-26.7,1.9-94.2,11.8-125.1,16.6c0,0,0-3.3,0.2-4.3
	c0.8-6.6,0.2-10,5.4-11c5.2-1,94.5-24,133.9-29c39.5-5.1,41.2-2.9,47.3,5.6c4.5,6.2,8.6,26.7,10.9,45.5l-17.3,0.1
	C200.4,80.5,200.3,80.4,200.3,80.4z"/>
<g>
	
		<linearGradient id="SVGID_22_" gradientUnits="userSpaceOnUse" x1="159.9308" y1="51.3585" x2="161.9288" y2="37.1505" gradientTransform="matrix(-1 0 0 1 274.4272 0)">
		<stop  offset="0" style="stop-color:#FFFFFF;stop-opacity:0"/>
		<stop  offset="1" style="stop-color:#FFFFFF;stop-opacity:0.6"/>
	</linearGradient>
	<path class="st28" d="M20.5,65.2c0.4-4.2,0.9-6.4,5-7.2c5.2-1,94.5-24,133.9-29c39.5-5.1,41.2-2.9,47.3,5.6c0.6,0.8,1.2,2,1.8,3.3
		C202.4,37.3,44.6,61.2,20.5,65.2z"/>
	
		<linearGradient id="SVGID_23_" gradientUnits="userSpaceOnUse" x1="78.2029" y1="40.0871" x2="80.201" y2="25.879" gradientTransform="matrix(-1 0 0 1 274.4272 0)">
		<stop  offset="0" style="stop-color:#FFFFFF;stop-opacity:0"/>
		<stop  offset="1" style="stop-color:#FFFFFF;stop-opacity:0.6"/>
	</linearGradient>
	<path class="st29" d="M208.1,80.4l-7.7,0.1c0,0,0-0.1-0.1-0.1c-1.8-3.7-3.6-7.2-6.1-10.3C200.6,72.6,204.8,76.2,208.1,80.4z"/>
</g>
<path class="st30" d="M263,107.2c16.9,0,21.7-8.5,21.7-12.1c0,3.6-4.4,15.1-21.3,15.1c-16.9,0-39.9-11.4-39.9-15.1
	C223.5,98.7,246.1,107.2,263,107.2z"/>
<g>
	<path class="st31" d="M122.8,35.5c0.3-0.1,0.6-0.1,0.9-0.2l1.8,23.3c-0.3,0-0.6,0.1-0.9,0.1L122.8,35.5z"/>
	<path class="st31" d="M78.7,45.3c0.3-0.1,0.6-0.1,0.9-0.2l0.7,19.4c-0.3,0-0.6,0.1-0.9,0.1L78.7,45.3z"/>
	<path class="st31" d="M43.9,53.1c0.3-0.1,0.6-0.2,0.9-0.2v17.1c-0.3,0-0.6,0.1-0.9,0.1V53.1z"/>
</g>
<path class="st22" d="M217.5,14.7c7.9-2.4,26.5-1.9,33.1-1.2c2.6,0.3,5,0.8,7.1,1.6c1.7,1.2,3.2,2.6,4.4,4.2
	c0.9,1.1,1.9,2.5,2.9,4.1c-7.7-1.7-24.4-3.7-51,1.2C212.1,20.2,211.4,16.6,217.5,14.7z"/>
<path class="st1" d="M287.3,117.4c0,0-1,1.1-16,1.2c-15,0.1-42.6,1.4-50.2-0.2c-0.1,5.6-1.3,15.3,2.4,15.9c4.5,0.8,36.4-0.5,47.1-1
	c10.7-0.6,14.7-1.2,16-5.1C287.9,124.3,287.3,117.4,287.3,117.4z"/>
<path class="st31" d="M183.2,80.1l-5-53l0.9-0.1l8.9,95.2l30.8,3.5c0.6-20.8-1.5-39.9-2.1-45.4l0.9,0c0.7,6.3,3.2,29.5,1.8,53.1
	l-0.9-0.1c0.1-2.2,0.2-4.5,0.3-6.7l-30.7-3.5l0.6,6.6l-0.9-0.1l-0.6-6.6l-0.1,0l0.1-0.4L183.3,81L141,82.5l1.8,41.7l-0.9-0.1
	l-1.7-41.5l-36.3,1.3l1.5,35.8l-0.9-0.1l-1.5-35.7l-32.6,1.1l1.3,30.5l-0.9-0.1l-1.3-30.3l-53.3,1.8l0-0.9L183.2,80.1z"/>
<g>
	<path class="st32" d="M265.7,78.7c3.2,0,5.9-3.1,5.9-7c0-3.8-2.6-7-5.9-7c-3.2,0-5.9,3.1-5.9,7C259.8,75.6,262.4,78.7,265.7,78.7z
		 M265.7,65.6c2.8,0,5,2.7,5,6.1c0,3.4-2.2,6.1-5,6.1c-2.8,0-5-2.7-5-6.1C260.7,68.4,262.9,65.6,265.7,65.6z"/>
</g>
<path class="st33" d="M242.2,80.1c0.7,4.7,5.1,8.4,9.8,8.4l0,0c4.6,0,7.8-3.8,7.1-8.4l-3.1-19.1c-0.7-4.6-5.1-8.4-9.8-8.4l0,0
	c-4.6,0-7.8,3.8-7.1,8.4L242.2,80.1z"/>
<path class="st34" d="M210.9,80.5c-0.1-0.2-0.1-0.5-0.2-0.7l-3.1-19.1c-0.6-4,1.6-7.3,5.2-8.2c1.9,8.4,3.6,18.4,4.8,28L210.9,80.5z"
	/>
<path class="st33" d="M281.5,72.2c0.3,1.4,0.5,2.8,0.8,4.3c0.4,2.4,0.8,4.9,1.1,7.5c0.1,2.3-0.1,6.7-3.6,7.4
	c-4.7,0.9-29.7,1.7-40.4-1.3c-10.1-2.8-10.9-5.5-12.6-14.9C260.2,66.6,276.9,70.6,281.5,72.2z"/>
<g class="st35">
	<defs>
		<path id="SVGID_24_" class="st35" d="M200.3,80.4C193.2,65.6,184.7,54.1,145,57c-26.7,1.9-94.2,11.8-125.1,16.6c0,0,0-3.3,0.2-4.3
			c0.8-6.6,0.2-10,5.4-11c5.2-1,94.5-24,133.9-29c39.5-5.1,41.2-2.9,47.3,5.6c4.5,6.2,8.6,26.7,10.9,45.5l-17.3,0.1
			C200.4,80.5,200.3,80.4,200.3,80.4z"/>
	</defs>
	<clipPath id="SVGID_25_">
		<use xlink:href="#SVGID_24_"  style="overflow:visible;"/>
	</clipPath>
	<g class="st36">
		<g>
			<g>
				<path class="st33" d="M175.8,64.7c0.6,3.8,4.2,6.8,7.9,6.8l0,0c3.8,0,6.3-3.1,5.7-6.8L187,49.2c-0.6-3.8-4.2-6.8-7.9-6.8l0,0
					c-3.8,0-6.3,3.1-5.7,6.8L175.8,64.7z"/>
				<path class="st33" d="M161.1,64.7c0.6,3.8,4.2,6.8,7.9,6.8l0,0c3.8,0,6.3-3.1,5.7-6.8l-2.5-15.5c-0.6-3.8-4.2-6.8-7.9-6.8l0,0
					c-3.8,0-6.3,3.1-5.7,6.8L161.1,64.7z"/>
			</g>
			<g>
				<path class="st33" d="M219.4,64.7c0.6,3.8,4.2,6.8,7.9,6.8l0,0c3.8,0,6.3-3.1,5.7-6.8l-2.5-15.5c-0.6-3.8-4.2-6.8-7.9-6.8l0,0
					c-3.8,0-6.3,3.1-5.7,6.8L219.4,64.7z"/>
				<path class="st33" d="M206.8,77.6c0.6,3.8,4.2,6.8,7.9,6.8l-2.1-12.9c3.8,0,6.3-3.1,5.7-6.8l-2.5-15.5c-0.6-3.8-4.2-6.8-7.9-6.8
					l0,0c-3.8,0-6.3,3.1-5.7,6.8L206.8,77.6z"/>
			</g>
		</g>
		<g>
			<g>
				<path class="st33" d="M149.1,65.1c0.6,3.2,3.7,5.7,6.9,5.7l0,0c3.2-0.1,5.3-2.7,4.7-5.9l-2.4-13.1c-0.6-3.2-3.7-5.7-6.9-5.7l0,0
					c-3.2,0.1-5.3,2.7-4.7,5.9L149.1,65.1z"/>
				<path class="st33" d="M136.7,65.4c0.6,3.2,3.7,5.7,6.9,5.7l0,0c3.2-0.1,5.3-2.7,4.7-5.9L145.9,52c-0.6-3.2-3.7-5.7-6.9-5.7l0,0
					c-3.2,0.1-5.3,2.7-4.7,5.9L136.7,65.4z"/>
			</g>
			<g>
				<path class="st33" d="M191.5,65.3c0.6,3.2,2.8,17,3.9,16.7l7.3,3.8c3.2-0.1,4.3-1.1,3.7-4.3l-4.9-30.1c-0.6-3.2-3.7-5.7-6.9-5.7
					l0,0c-3.2,0.1-6.1,3.2-5.5,6.4L191.5,65.3z"/>
				<path class="st33" d="M173.8,64.6c0.6,3.2,3.7,5.7,6.9,5.7l0,0c3.2-0.1,5.3-2.7,4.7-5.9L183,51.2c-0.6-3.2-3.7-5.7-6.9-5.7l0,0
					c-3.2,0.1-5.3,2.7-4.7,5.9L173.8,64.6z"/>
			</g>
		</g>
		<g>
			<g>
				<path class="st33" d="M124.9,68.8c0.6,3.2,3.7,5.7,6.9,5.7l0,0c3.2-0.1,5.3-2.7,4.7-5.9l-2.4-13.1c-0.6-3.2-3.7-5.7-6.9-5.7l0,0
					c-3.2,0.1-5.3,2.7-4.7,5.9L124.9,68.8z"/>
				<path class="st33" d="M112.5,69.1c0.6,3.2,3.7,5.7,6.9,5.7l0,0c3.2-0.1,5.3-2.7,4.7-5.9l-2.4-13.1c-0.6-3.2-3.7-5.7-6.9-5.7l0,0
					c-3.2,0.1-5.3,2.7-4.7,5.9L112.5,69.1z"/>
			</g>
		</g>
		<g>
			<g>
				<path class="st33" d="M98.2,70.6c0.7,2.8,3.5,4.9,6.4,4.7l0,0c2.9-0.2,4.6-2.7,4-5.5l-2.8-11.6c-0.7-2.8-3.5-4.9-6.4-4.7l0,0
					c-2.9,0.2-4.6,2.7-4,5.5L98.2,70.6z"/>
				<path class="st33" d="M87.1,71.4c0.7,2.8,3.5,4.9,6.4,4.7l0,0c2.9-0.2,4.6-2.7,4-5.5L94.7,59c-0.7-2.8-3.5-4.9-6.4-4.7l0,0
					c-2.9,0.2-4.6,2.7-4,5.5L87.1,71.4z"/>
			</g>
		</g>
		<g>
			<g>
				<path class="st33" d="M76,72.1c0.6,2.5,3.1,4.3,5.6,4.1l0,0c2.5-0.2,4.1-2.3,3.5-4.8l-2.4-10.2c-0.6-2.5-3.1-4.3-5.6-4.1l0,0
					c-2.5,0.2-4.1,2.3-3.5,4.8L76,72.1z"/>
				<path class="st33" d="M66.3,72.8c0.6,2.5,3.1,4.3,5.6,4.1l0,0c2.5-0.2,4.1-2.3,3.5-4.8l-2.4-10.2c-0.6-2.5-3.1-4.3-5.6-4.1l0,0
					c-2.5,0.2-4.1,2.3-3.5,4.8L66.3,72.8z"/>
			</g>
		</g>
		<g>
			<g>
				<path class="st33" d="M57.1,75.3c0.6,2.5,3.2,4.5,5.8,4.3l0,0c2.6-0.2,4.2-2.4,3.6-5L64,64.2c-0.6-2.5-3.2-4.5-5.8-4.3l0,0
					c-2.6,0.2-4.2,2.4-3.6,5L57.1,75.3z"/>
				<path class="st33" d="M47.1,76.1c0.6,2.5,3.2,4.5,5.8,4.3l0,0c2.6-0.2,4.2-2.4,3.6-5L54,64.9c-0.6-2.5-3.2-4.5-5.8-4.3l0,0
					c-2.6,0.2-4.2,2.4-3.6,5L47.1,76.1z"/>
			</g>
		</g>
		<g>
			<g>
				<path class="st33" d="M37,76.3c0.5,2.2,2.7,3.8,4.9,3.6l0,0c2.2-0.2,3.5-2,3-4.2l-2.1-8.9c-0.5-2.2-2.7-3.8-4.9-3.6l0,0
					c-2.2,0.2-3.5,2-3,4.2L37,76.3z"/>
				<path class="st33" d="M28.5,76.9c0.5,2.2,2.7,3.8,4.9,3.6l0,0c2.2-0.2,3.5-2,3-4.2l-2.1-8.9c-0.5-2.2-2.7-3.8-4.9-3.6l0,0
					c-2.2,0.2-3.5,2-3,4.2L28.5,76.9z"/>
			</g>
		</g>
	</g>
</g>
<linearGradient id="SVGID_26_" gradientUnits="userSpaceOnUse" x1="14.639" y1="95.6235" x2="34.4506" y2="12.0701" gradientTransform="matrix(-1 0 0 1 274.4272 0)">
	<stop  offset="0" style="stop-color:#FFFFFF;stop-opacity:0"/>
	<stop  offset="1" style="stop-color:#FFFFFF;stop-opacity:0.6"/>
</linearGradient>
<path class="st37" d="M243.7,13c1,0.9,1.8,1.8,2.6,2.8c2.5,3,5.5,7.8,8.6,14.7c4.2,10.1,9.6,25.9,13.4,47.8c0.4,2.6,0.8,5.4,1.2,8.2
	c0.1,1.5,0,3.8-0.9,5.6c-5.1,0.1-11.1,0.1-16.7-0.3c0.7-1.7,0.8-3.9,0.7-5.3c-0.4-2.8-0.8-5.5-1.2-8.2c-3.8-21.9-9.2-37.7-13.4-47.8
	c-3.1-6.8-6.1-11.6-8.6-14.7c-0.7-0.9-1.6-1.8-2.4-2.6C232.6,12.8,238.8,12.8,243.7,13z"/>
<linearGradient id="SVGID_27_" gradientUnits="userSpaceOnUse" x1="27.9426" y1="93.6383" x2="46.7895" y2="14.1535" gradientTransform="matrix(-1 0 0 1 274.4272 0)">
	<stop  offset="0" style="stop-color:#FFFFFF;stop-opacity:0"/>
	<stop  offset="1" style="stop-color:#FFFFFF;stop-opacity:0.6"/>
</linearGradient>
<path class="st38" d="M244.8,78.3c-3.8-21.9-9.2-37.7-13.4-47.8c-3.1-6.8-6.1-11.6-8.6-14.7c-0.6-0.7-1.1-1.3-1.8-1.9
	c1.1-0.2,2.3-0.3,3.5-0.5c0.8,0.8,1.5,1.6,2.2,2.4c2.5,3,5.5,7.8,8.6,14.7c4.2,10.1,9.6,25.9,13.4,47.8c0.4,2.6,0.8,5.4,1.2,8.2
	c0.1,1.4,0,3.4-0.7,5.1c-1.3-0.1-2.6-0.3-3.8-0.4c0.5-1.6,0.6-3.5,0.5-4.7C245.7,83.7,245.3,80.9,244.8,78.3z"/>
<g>
	<path class="st0" d="M188.1,21.6c0,0,34.6-3.6,41.1-2.7c6.5,0.9,11.5,7.1,11.2,30.5c-5.3,1.8-9.8,0.1-11.1-9.6
		c-1.3-9.8-4.4-16.3-8.4-16.3c-4,0-32.8,1.1-32.8,1.1V21.6z"/>
	<path class="st39" d="M191.3,20.8c0,0,31.5-2.8,38-1.9c6.5,0.9,11.5,7.1,11.2,30.5c-5.3,1.8-7.3-0.1-8.6-9.9
		c-1.3-9.8-4.4-19.3-8.4-19.3c-4,0-35.3,1.4-35.3,1.4L191.3,20.8z"/>
	
		<linearGradient id="SVGID_28_" gradientUnits="userSpaceOnUse" x1="39.4482" y1="43.4007" x2="43.6459" y2="25.6977" gradientTransform="matrix(-1 0 0 1 274.4272 0)">
		<stop  offset="0" style="stop-color:#FF9D00"/>
		<stop  offset="0.1153" style="stop-color:#FFA500"/>
		<stop  offset="0.2979" style="stop-color:#FFBC00"/>
		<stop  offset="0.4892" style="stop-color:#FFDB00"/>
		<stop  offset="0.6096" style="stop-color:#FFD300"/>
		<stop  offset="0.8002" style="stop-color:#FFBC00"/>
		<stop  offset="1" style="stop-color:#FF9D00"/>
	</linearGradient>
	<path class="st40" d="M229.7,25.6c1.5-0.5,3.1,0.3,3.6,2c1.5,4.9,2.1,7.4,2.8,12.6c0.2,1.7-0.9,3.2-2.5,3.3c-0.4,0-0.8,0-1.1-0.1
		c-0.2-1.1-0.4-2.3-0.6-3.7c-0.7-4.9-1.8-9.7-3.2-13.4C229,25.9,229.3,25.7,229.7,25.6z"/>
</g>
<g>
	<g>
		<path class="st41" d="M248.6,112.1c0,0-9.4-2.1-15.6-7.8c-4.9-4.4-7.6,3-6.3,8.7c1.2,5.6,15,4.3,19.4,3.9
			C250.5,116.4,251.2,112.8,248.6,112.1z"/>
		<path class="st42" d="M247.6,112.1c0,0-8.8-1.8-14.6-6.6c-4.6-3.8-7.1,2.6-5.9,7.4c1.2,4.8,14.1,3.7,18.2,3.3
			C249.4,115.8,250,112.8,247.6,112.1z"/>
		
			<linearGradient id="SVGID_29_" gradientUnits="userSpaceOnUse" x1="39.906" y1="108.7455" x2="47.6898" y2="108.7455" gradientTransform="matrix(-1 0 0 1 274.4272 0)">
			<stop  offset="0" style="stop-color:#FF9D00"/>
			<stop  offset="0.1153" style="stop-color:#FFA500"/>
			<stop  offset="0.2979" style="stop-color:#FFBC00"/>
			<stop  offset="0.4892" style="stop-color:#FFDB00"/>
			<stop  offset="0.6096" style="stop-color:#FFD300"/>
			<stop  offset="0.8002" style="stop-color:#FFBC00"/>
			<stop  offset="1" style="stop-color:#FF9D00"/>
		</linearGradient>
		<path class="st43" d="M227.1,113.2c0-0.1-0.1-0.2-0.1-0.3c-1.2-4.8,1.4-11.2,5.9-7.4c0.5,0.4,1,0.8,1.6,1.2
			C230.8,107.6,228.1,109.8,227.1,113.2z"/>
	</g>
	<g>
		<path class="st41" d="M279.9,111.9c0,0,3.3-1.2,4.9-9.1c1.7-4.5,2.3,3,2.2,8.7c-0.1,4.2-5.2,4.4-6.7,3.9
			C278.7,115,278.1,113.1,279.9,111.9z"/>
		<path class="st42" d="M279,112.8C279,112.8,279,112.8,279,112.8c0.2-0.4,0.5-0.6,0.8-0.9c0,0,1.2-0.4,2.5-2.5
			c0.8-1.3,1.7-3.1,2.3-6c1.2-1.9,1.7,3.7,1.6,8.1c-0.1,3.5-4.7,3.7-6,3.3C279.1,114.7,278.6,113.7,279,112.8z"/>
		
			<linearGradient id="SVGID_30_" gradientUnits="userSpaceOnUse" x1="-11.6888" y1="105.6481" x2="-9.17" y2="105.6481" gradientTransform="matrix(-1 0 0 1 274.4272 0)">
			<stop  offset="0" style="stop-color:#FF9D00"/>
			<stop  offset="0.1153" style="stop-color:#FFA500"/>
			<stop  offset="0.2979" style="stop-color:#FFBC00"/>
			<stop  offset="0.4892" style="stop-color:#FFDB00"/>
			<stop  offset="0.6096" style="stop-color:#FFD300"/>
			<stop  offset="0.8002" style="stop-color:#FFBC00"/>
			<stop  offset="1" style="stop-color:#FF9D00"/>
		</linearGradient>
		<path class="st44" d="M283.6,106.8c0.4-1.2,0.6-1.6,1-3.3c0.9-1.4,1.4,1.3,1.6,4.6C285.7,107.2,284.5,106.9,283.6,106.8z"/>
	</g>
	<g>
		
			<radialGradient id="SVGID_31_" cx="34.1664" cy="122.6949" r="3.3901" gradientTransform="matrix(-0.9364 0 0 0.9364 266.4489 -2.6716)" gradientUnits="userSpaceOnUse">
			<stop  offset="0" style="stop-color:#FFFFFF"/>
			<stop  offset="0.2147" style="stop-color:#FBFBFB"/>
			<stop  offset="0.4391" style="stop-color:#EEEEEE"/>
			<stop  offset="0.6679" style="stop-color:#D9D9D9"/>
			<stop  offset="0.8985" style="stop-color:#BCBCBC"/>
			<stop  offset="1" style="stop-color:#ADADAD"/>
		</radialGradient>
		<path class="st45" d="M231.6,112.2c0,1.9,1.3,3.5,2.8,3.5c1.6,0,2.8-1.6,2.8-3.5s-1.3-3.5-2.8-3.5
			C232.9,108.7,231.6,110.3,231.6,112.2z"/>
		
			<radialGradient id="SVGID_32_" cx="26.534" cy="123.91" r="2.5601" gradientTransform="matrix(-0.9364 0 0 0.9364 266.4489 -2.6716)" gradientUnits="userSpaceOnUse">
			<stop  offset="0" style="stop-color:#FFFFFF"/>
			<stop  offset="0.2147" style="stop-color:#FBFBFB"/>
			<stop  offset="0.4391" style="stop-color:#EEEEEE"/>
			<stop  offset="0.6679" style="stop-color:#D9D9D9"/>
			<stop  offset="0.8985" style="stop-color:#BCBCBC"/>
			<stop  offset="1" style="stop-color:#ADADAD"/>
		</radialGradient>
		<ellipse class="st46" cx="241.6" cy="113.4" rx="2.1" ry="2.6"/>
		
			<radialGradient id="SVGID_33_" cx="-107.8752" cy="151.078" r="3.0168" gradientTransform="matrix(0.5373 0 0 0.7502 342.6789 -2.4824)" gradientUnits="userSpaceOnUse">
			<stop  offset="0" style="stop-color:#FFFFFF"/>
			<stop  offset="0.2147" style="stop-color:#FBFBFB"/>
			<stop  offset="0.4391" style="stop-color:#EEEEEE"/>
			<stop  offset="0.6679" style="stop-color:#D9D9D9"/>
			<stop  offset="0.8985" style="stop-color:#BCBCBC"/>
			<stop  offset="1" style="stop-color:#ADADAD"/>
		</radialGradient>
		<path class="st47" d="M286.2,110.9c0,1.4-0.6,2.5-1.5,2.5c-0.8,0-1.4-1.1-1.4-2.5c0-1.4,0.6-2.5,1.4-2.5
			C285.5,108.4,286.2,109.5,286.2,110.9z"/>
		
			<radialGradient id="SVGID_34_" cx="-112.63" cy="153.3665" r="2.2784" gradientTransform="matrix(0.5373 0 0 0.7502 342.6789 -2.4824)" gradientUnits="userSpaceOnUse">
			<stop  offset="0" style="stop-color:#FFFFFF"/>
			<stop  offset="0.2147" style="stop-color:#FBFBFB"/>
			<stop  offset="0.4391" style="stop-color:#EEEEEE"/>
			<stop  offset="0.6679" style="stop-color:#D9D9D9"/>
			<stop  offset="0.8985" style="stop-color:#BCBCBC"/>
			<stop  offset="1" style="stop-color:#ADADAD"/>
		</radialGradient>
		<path class="st48" d="M283.3,112.6c0,1-0.5,1.9-1.1,1.9c-0.6,0-1.1-0.8-1.1-1.9c0-1,0.5-1.9,1.1-1.9
			C282.8,110.7,283.3,111.5,283.3,112.6z"/>
	</g>
</g>
<g>
	<path class="st49" d="M198.4,92.9c0,0.3-0.3,0.5-0.6,0.5l-8.2-0.4c-0.3,0-0.6-0.3-0.6-0.6l0-1.3c0-0.3,0.3-0.5,0.6-0.5l8.2,0.4
		c0.3,0,0.6,0.3,0.6,0.6L198.4,92.9z"/>
	
		<linearGradient id="SVGID_35_" gradientUnits="userSpaceOnUse" x1="354.159" y1="95.153" x2="354.159" y2="96.601" gradientTransform="matrix(1.0164 4.930000e-02 -5.400000e-03 0.9836 -165.7651 -19.7142)">
		<stop  offset="0" style="stop-color:#FFFFFF"/>
		<stop  offset="0.4388" style="stop-color:#FDFDFD"/>
		<stop  offset="0.6846" style="stop-color:#F5F5F5"/>
		<stop  offset="0.882" style="stop-color:#E7E7E8"/>
		<stop  offset="0.9677" style="stop-color:#DEDFE0"/>
	</linearGradient>
	<path class="st50" d="M196.5,92.6c0,0.2-0.2,0.3-0.3,0.3l-4.9-0.2c-0.2,0-0.3-0.2-0.3-0.3l0-0.8c0-0.2,0.2-0.3,0.3-0.3l4.9,0.2
		c0.2,0,0.3,0.2,0.3,0.3L196.5,92.6z"/>
</g>
<g>
	<path class="st49" d="M123.5,115.1c0,0.2-0.2,0.4-0.4,0.4l-5.8-0.3c-0.2,0-0.4-0.2-0.4-0.4l0-0.9c0-0.2,0.2-0.4,0.4-0.4l5.8,0.3
		c0.2,0,0.4,0.2,0.4,0.4L123.5,115.1z"/>
	
		<linearGradient id="SVGID_36_" gradientUnits="userSpaceOnUse" x1="281.979" y1="121.7336" x2="281.979" y2="122.9409" gradientTransform="matrix(1.0164 4.930000e-02 -5.400000e-03 0.9836 -165.7651 -19.7142)">
		<stop  offset="0" style="stop-color:#FFFFFF"/>
		<stop  offset="0.4388" style="stop-color:#FDFDFD"/>
		<stop  offset="0.6846" style="stop-color:#F5F5F5"/>
		<stop  offset="0.882" style="stop-color:#E7E7E8"/>
		<stop  offset="0.9677" style="stop-color:#DEDFE0"/>
	</linearGradient>
	<path class="st51" d="M122.5,115c0,0.2-0.1,0.3-0.3,0.3l-4.1-0.2c-0.2,0-0.3-0.1-0.3-0.3l0-0.6c0-0.2,0.1-0.3,0.3-0.3l4.1,0.2
		c0.2,0,0.3,0.1,0.3,0.3L122.5,115z"/>
</g>
<g>
	<path class="st49" d="M87.9,112.5c0,0.2-0.2,0.3-0.3,0.3l-4.9-0.2c-0.2,0-0.3-0.2-0.3-0.3l0-0.8c0-0.2,0.2-0.3,0.3-0.3l4.9,0.2
		c0.2,0,0.3,0.2,0.3,0.3L87.9,112.5z"/>
	
		<linearGradient id="SVGID_37_" gradientUnits="userSpaceOnUse" x1="247.4262" y1="120.9756" x2="247.4262" y2="121.9414" gradientTransform="matrix(1.0164 4.930000e-02 -5.400000e-03 0.9836 -165.7651 -19.7142)">
		<stop  offset="0" style="stop-color:#FFFFFF"/>
		<stop  offset="0.4388" style="stop-color:#FDFDFD"/>
		<stop  offset="0.6846" style="stop-color:#F5F5F5"/>
		<stop  offset="0.882" style="stop-color:#E7E7E8"/>
		<stop  offset="0.9677" style="stop-color:#DEDFE0"/>
	</linearGradient>
	<path class="st52" d="M86.9,112.3c0,0.1-0.1,0.2-0.2,0.2l-3.3-0.2c-0.1,0-0.2-0.1-0.2-0.2l0-0.5c0-0.1,0.1-0.2,0.2-0.2l3.3,0.2
		c0.1,0,0.2,0.1,0.2,0.2L86.9,112.3z"/>
</g>
<g>
	<polygon class="st53" points="81.4,77.4 180.2,72.8 143.9,102.8 107.7,101.8 96.2,91.1 	"/>
	<polygon class="st54" points="88.7,79.6 168.6,76.6 140.2,99.7 110.7,99.1 	"/>
	<polyline class="st53" points="111.9,91.9 100.1,94.2 96.2,90.6 	"/>
	<polyline class="st53" points="137.9,91.9 152.8,94.4 157.7,90.2 	"/>
	<polygon class="st53" points="107,84.1 93.3,86.6 88.8,83.2 	"/>
	<polyline class="st53" points="143.9,83.3 162.4,85.4 168.7,80.9 	"/>
	<path class="st55" d="M138.1,76l-26.7,1.2c-0.1,1.8-0.1,3.6-0.1,5.5c0.2,6.9,1.6,13.2,3.7,18.1l20.8,0.5c2-5.2,3-11.9,2.8-19.3
		C138.6,79.8,138.4,77.9,138.1,76C138.1,76,138.1,76,138.1,76z"/>
	<path class="st55" d="M95.1,78.1c6.5,1.8,16.9,2.9,29.3,2.5c13.3-0.4,25.9-2.4,34.6-5.2L95.1,78.1z"/>
	<polygon class="st53" points="140.4,102.4 110.8,101.7 110.7,99.1 140.3,99.7 	"/>
	<polygon class="st53" points="169.4,76.5 87.1,79.7 87,77.1 169.3,73.3 	"/>
	<g>
		<path class="st56" d="M136,88.7c0.3,9.4-4.6,16.9-10.8,16.7c-6-0.2-10.9-7.6-11.2-16.5c-0.3-8.9,4.1-16.3,10.1-16.7
			C130.3,71.9,135.7,79.3,136,88.7z"/>
		<g>
			<g>
				<path d="M129.6,95.8c0,0.2,0,0.3-0.2,0.3c-0.1,0-0.3-0.1-0.6-0.3c-0.3-0.2-0.5-0.4-0.6-0.5c-0.9,1-2,1.4-3.3,1.4
					c-1.5,0-2.7-0.9-3.8-2.6c-1-1.6-1.5-3.5-1.5-5.8c-0.1-2.3,0.3-4.3,1.1-5.9c0.9-1.7,2.1-2.6,3.6-2.6c0.8,0,1.6,0.2,2.3,0.8
					c0.8,0.5,1.4,1.3,1.9,2.3c0.1,0.1,0.1,0.3,0.1,0.3c0,0.1-0.2,0.5-0.5,1.1c-0.4,0.6-0.6,0.9-0.6,0.9c0,0-0.2-0.2-0.5-0.7
					c-0.4-0.6-0.7-1-1-1.3c-0.5-0.5-1-0.7-1.5-0.7c-1,0-1.7,0.7-2.3,1.9c-0.5,1.1-0.7,2.4-0.7,3.9c0.1,1.5,0.4,2.7,1,3.9
					c0.7,1.2,1.5,1.8,2.4,1.8c0.9,0,1.8-0.4,2.6-1.2c0-0.2-0.1-0.9-0.2-2.2c-0.1-0.9-0.2-1.6-0.2-2.2c0-0.1,0-0.2,0.2-0.2
					c0.1,0,0.2,0,0.4,0c0.2,0,0.3,0,0.4,0c0.1,0,0.2,0,0.5,0c0.2,0,0.4,0,0.5,0c0.1,0,0.2,0.1,0.2,0.4c0,0.3,0,0.7,0,1.2
					c0,0.5,0,1,0,1.2c0,1.1,0.1,2.6,0.3,4.6L129.6,95.8z"/>
			</g>
		</g>
	</g>
</g>
<g>
	<g>
		<g>
			<path d="M37.6,84.2c0,0.1,0,0.2-0.1,0.2c0,0-0.2,0-0.4-0.1c-0.2-0.1-0.3-0.1-0.4-0.2c-0.5,0.4-0.9,0.6-1.4,0.6
				c-0.7,0-1.3-0.4-1.7-1.2c-0.4-0.8-0.7-1.9-0.7-3.2c0-1.3,0.2-2.4,0.6-3.4c0.4-0.9,1-1.4,1.7-1.5c0.3,0,0.7,0.1,1,0.3
				c0.3,0.2,0.6,0.6,0.8,1.1c0,0.1,0.1,0.2,0.1,0.2c0,0.1-0.1,0.4-0.3,0.9c-0.2,0.5-0.3,0.7-0.4,0.7c0,0-0.1-0.1-0.2-0.2
				c-0.1-0.2-0.2-0.4-0.3-0.5c-0.2-0.2-0.4-0.2-0.6-0.2c-0.3,0-0.6,0.3-0.8,0.8c-0.2,0.4-0.3,1-0.3,1.6c0,0.7,0.1,1.2,0.3,1.6
				c0.2,0.4,0.5,0.6,0.9,0.6c0.2,0,0.5-0.1,0.8-0.4c0-0.1,0-0.5-0.1-1.1c0-0.4,0-0.8,0-1.1c0-0.1,0-0.1,0-0.1c0,0,0,0,0.1,0
				c0.1,0,0.2,0,0.3,0c0.1,0,0.2,0,0.3,0c0.1,0,0.2,0,0.3-0.1c0.1,0,0.3,0,0.3-0.1c0.1,0,0.1,0.1,0.1,0.2c0,0.2,0,0.5,0,0.9
				c0,0.4,0,0.7,0,0.9C37.6,82.2,37.6,83,37.6,84.2L37.6,84.2z"/>
			<path d="M39.6,79.5c0,0.5,0,1.3,0,2.3c0,1,0,1.8,0,2.3c0,0.1,0,0.1,0,0.2c0,0,0,0-0.1,0c-0.2,0-0.4,0.1-0.6,0.1
				c-0.3,0-0.6,0-0.7,0c-0.1,0-0.1-0.1-0.1-0.2c0,0.1,0-0.3,0-1.1c0-1.7,0.1-2.9,0.1-3.4c0-0.5,0-1.1,0-2c0-0.9,0-1.6,0-2
				c0-0.1,0-0.1,0.1-0.1c0.1,0,0.2,0,0.3,0c0.1,0,0.3,0,0.3,0c0.1,0,0.2,0,0.3,0c0.1,0,0.3,0,0.3,0c0.1,0,0.1,0,0.1,0.1
				c0,0.5,0,1.1,0,2.1C39.6,78.4,39.6,79.1,39.6,79.5z"/>
			<path d="M44.5,82.5c0,0.1,0,0.2-0.1,0.3c-0.4,1-1,1.5-1.8,1.5c-0.7,0-1.4-0.4-1.8-1.3c-0.4-0.9-0.7-2-0.7-3.3
				c0-1.3,0.2-2.4,0.7-3.4c0.5-1,1-1.5,1.8-1.6c0.8-0.1,1.4,0.3,1.8,1.1c0,0.1,0.1,0.2,0.1,0.2c0,0.1-0.1,0.4-0.3,0.9
				c-0.2,0.5-0.3,0.8-0.3,0.9c0,0,0,0.1-0.1,0.1c0,0-0.1-0.1-0.2-0.2c-0.1-0.2-0.3-0.4-0.4-0.5c-0.2-0.2-0.4-0.2-0.6-0.2
				c-0.4,0-0.6,0.3-0.8,0.8c-0.2,0.5-0.3,1-0.3,1.6c0,0.7,0.1,1.2,0.3,1.6c0.2,0.5,0.5,0.7,0.8,0.7c0.2,0,0.4-0.1,0.6-0.3
				c0.1-0.1,0.2-0.3,0.4-0.5c0.1-0.2,0.2-0.3,0.2-0.3c0,0,0,0,0.1,0.1c0,0.1,0.1,0.3,0.3,0.8C44.4,82.2,44.5,82.5,44.5,82.5z"/>
			<path d="M49.8,83.5c0,0.1,0,0.1-0.1,0.2c-0.1,0-0.3,0.1-0.7,0.1c-0.4,0-0.6,0-0.7,0c-0.1,0-0.1-0.1-0.2-0.3c-0.1-0.6-0.2-1-0.2-1
				c0,0-0.4,0-1,0c-0.4,0-0.6,0.1-0.7,0.1c0,0.1-0.1,0.3-0.1,0.7c0,0.4-0.1,0.6-0.2,0.6c-0.1,0-0.4,0.1-0.8,0.1
				c-0.4,0-0.6,0-0.6-0.2c0-0.1,0.3-1.5,0.8-4.2c0.6-2.9,0.9-4.6,1-4.8c0-0.2,0.1-0.3,0.1-0.3c0.1,0,0.2,0,0.3,0c0.1,0,0.2,0,0.3,0
				c0.1,0,0.2,0,0.3,0c0.1,0,0.2,0,0.3,0c0,0,0.1,0.1,0.1,0.2c0.1,0.5,0.5,2,1.1,4.7C49.5,82,49.8,83.4,49.8,83.5z M47.1,77.7
				c-0.1,0.2-0.1,0.6-0.3,1.3c-0.1,0.7-0.2,1.1-0.2,1.2c0,0.1,0.1,0.1,0.2,0.1c0.1,0,0.2,0,0.4,0c0.2,0,0.3-0.1,0.3-0.1
				c0,0,0-0.1,0-0.1c0-0.1-0.1-0.5-0.2-1.2C47.3,78.3,47.2,77.9,47.1,77.7z"/>
			<path d="M54.7,80.5c0,0.8-0.1,1.5-0.4,2.1c-0.3,0.6-0.9,1-1.8,1c-0.1,0-0.2,0-0.3,0c-0.1,0-0.2,0-0.3,0c-0.9,0.1-1.5,0.1-1.7,0
				c-0.1,0-0.1-0.1-0.1-0.2c0-0.5,0-1.2,0-2.1c0-1,0-1.7,0-2.2c0-0.5,0-1.5,0-2.9c0-0.4,0-0.9,0-1.6l0-0.1c0-0.1,0-0.1,0.1-0.2
				c0.1,0,0.4-0.1,0.9-0.1c0.8-0.1,1.3-0.1,1.4-0.1c0.6,0,1.1,0.1,1.4,0.4c0.4,0.4,0.6,1.1,0.6,2.1c0,0.3,0,0.5-0.1,0.8
				c-0.1,0.2-0.2,0.4-0.3,0.6c-0.1,0.2-0.1,0.3-0.1,0.3c0,0,0,0.1,0.1,0.1c0.2,0.2,0.3,0.4,0.4,0.8C54.6,79.8,54.7,80.1,54.7,80.5z
				 M53,76.9c0-0.4-0.1-0.6-0.3-0.7c-0.1-0.1-0.3-0.1-0.6-0.1c-0.3,0-0.4,0.1-0.4,0.1c0,0.1,0,0.2,0,0.4c0,0.2,0,0.3,0,0.4
				c0,0.4,0,0.7,0.1,0.7c0,0,0.2,0,0.5,0C52.8,77.7,53,77.4,53,76.9z M53.1,80.6c0-0.4-0.1-0.7-0.3-0.8c-0.1-0.1-0.3-0.1-0.6-0.1
				c-0.3,0-0.5,0.1-0.5,0.1c0,0,0,0.3,0,0.8c0,0.5,0,0.8,0,0.9c0,0.1,0.2,0.1,0.5,0c0.3,0,0.5-0.1,0.6-0.1
				C53.1,81.3,53.1,81,53.1,80.6z"/>
			<path d="M59.9,79.8c0,1.2-0.1,2-0.2,2.4c-0.3,0.8-1,1.2-2.2,1.3c-0.5,0-0.9,0-1.2-0.1c-0.5-0.2-0.7-0.6-0.9-1.2
				c-0.1-0.3-0.1-0.9-0.1-1.6c0-0.2,0-0.5,0-0.8c0-0.4,0-0.6,0-0.8c0-0.5,0-1.3,0-2.3c0-1,0-1.8,0-2.3c0-0.1,0-0.2,0.1-0.2
				c0.2,0,0.4,0,0.7,0c0.3,0,0.6,0,0.7,0c0.1,0,0.1,0,0.1,0.1c0,0.6,0,1.5,0,2.7c0,1.2,0,2.1,0,2.7c0,0.7,0,1.2,0.1,1.4
				c0.1,0.3,0.4,0.5,0.7,0.5c0.5,0,0.8-0.5,0.8-1.4c0-0.7,0-1.6,0-3c0-1.3,0-2.3,0-3c0-0.1,0-0.2,0.1-0.2c0.2,0,0.4,0,0.7-0.1
				c0.3,0,0.6-0.1,0.7-0.1c0.1,0,0.1,0,0.1,0.2c0,0.5,0,1.3,0,2.4c0,1.1,0,1.8,0,2.4c0,0.1,0,0.4,0,0.7
				C59.9,79.4,59.9,79.7,59.9,79.8z"/>
			<path d="M63.4,79.8c0,0.9-0.2,1.7-0.7,2.4c-0.4,0.6-0.9,1-1.5,1.2c0,0,0,0-0.1,0c-0.1,0-0.2-0.3-0.4-0.9c-0.2-0.6-0.3-1-0.3-1.2
				c0,0,0-0.1,0.1-0.1c0.4-0.2,0.6-0.3,0.8-0.4c0.3-0.3,0.4-0.6,0.4-1.1c0-0.3-0.1-0.6-0.3-1c-0.3-0.6-0.5-0.9-0.5-1
				c-0.2-0.5-0.3-1-0.3-1.6c0-0.8,0.2-1.5,0.7-2.1c0.4-0.5,0.8-0.8,1.4-1c0,0,0.1,0,0.1,0c0,0,0.1,0,0.1,0.2
				c0.1,0.3,0.2,0.9,0.5,1.8c0,0,0,0,0,0.1c0,0.1,0,0.1-0.1,0.1c0,0-0.1,0-0.1,0c-0.1,0-0.1,0-0.1,0c-0.2,0-0.4,0.1-0.5,0.3
				c-0.2,0.2-0.3,0.4-0.3,0.7c0,0.3,0.1,0.6,0.3,1c0.3,0.7,0.5,1.1,0.5,1.1C63.3,78.8,63.4,79.3,63.4,79.8z"/>
		</g>
	</g>
	<g>
		<g>
			<path d="M32.4,93.3c0,0,0,0.1,0,0.2c0,0.1,0,0.2,0,0.2c0,0.1,0,0.3,0,0.5c0,0.1,0,0.1-0.1,0.1c0,0,0,0-0.1,0
				c-0.2,0-0.5-0.1-0.9-0.1c-0.1,0-0.3,0-0.5,0c-0.2,0-0.4,0-0.5,0c-0.1,0-0.1,0-0.1-0.1c0-0.3,0-0.8,0-1.5c0-0.7,0-1.2,0-1.5
				c0-0.3,0-1,0-1.9c0-0.2,0-0.6,0-1.1l0-0.1c0-0.1,0-0.1,0.1-0.1c0.1,0,0.3,0,0.5,0c0.2,0,0.4,0,0.5,0c0.1,0,0.3,0,0.5,0
				c0.2,0,0.4,0,0.5,0c0.1,0,0.1,0,0.1,0.1c0,0.4,0.1,0.6,0.1,0.7c0,0.1,0,0.1-0.1,0.1c-0.1,0-0.3,0-0.6,0c-0.3,0-0.5,0-0.6,0
				c-0.1,0-0.2,0-0.2,0.1c0,0.1-0.1,0.2-0.1,0.5v0.7c0,0.2,0,0.3,0,0.3c0,0.1,0.1,0.1,0.1,0.1c0,0,0,0,0.1,0c0,0,0.1,0,0.1,0
				c0.3,0,0.6,0,0.8-0.1c0.1,0,0.2,0,0.3-0.1c0,0,0.1,0,0.1,0.1c0,0.1,0,0.2,0,0.4c0,0.2,0,0.3,0,0.4c0,0.1,0,0.1-0.1,0.1
				c0,0-0.1,0-0.2,0c-0.1,0-0.3,0-0.6,0c-0.3,0-0.4,0-0.5,0c-0.1,0-0.1,0.1-0.1,0.2c0,0,0,0.1,0,0.3v0.7c0,0.3,0,0.5,0.1,0.6
				c0,0.1,0.1,0.1,0.3,0.1l0.3,0c0.1,0,0.4,0,0.9-0.1l0,0C32.4,93.2,32.4,93.3,32.4,93.3z"/>
			<path d="M35,94.1c0,0.1,0,0.1,0,0.1c-0.1,0-0.1,0-0.2,0c-0.1,0-0.2,0-0.2,0c0,0,0,0,0-0.1c0-0.1,0-0.4,0-0.7c0-0.3,0-0.5,0-0.7
				c0-0.1,0-0.3,0-0.5c0-0.2,0-0.4,0-0.5c0-0.3,0-0.6-0.1-0.7c-0.1-0.2-0.2-0.2-0.4-0.2c-0.1,0-0.2,0.1-0.3,0.3
				c-0.2,0.2-0.2,0.3-0.2,0.5v2.7c0,0.1,0,0.1,0,0.1c-0.1,0-0.1,0-0.2,0c-0.1,0-0.2,0-0.2,0c0,0-0.1,0-0.1-0.1c0-0.2,0-0.6,0-1.1
				c0-0.5,0-0.8,0-1.1c0-0.6,0-1.2-0.1-1.8c0,0,0,0,0-0.1c0,0,0-0.1,0-0.1c0,0,0.1,0,0.3-0.1c0.2-0.1,0.3-0.1,0.3-0.1c0,0,0,0,0,0.1
				c0,0.2,0,0.4,0.1,0.6c0.1-0.1,0.2-0.3,0.3-0.5c0.2-0.2,0.3-0.3,0.5-0.3c0.3,0,0.5,0.1,0.6,0.5c0.1,0.2,0.1,0.6,0.1,1.2
				c0,0.1,0,0.2,0,0.4c0,0.2,0,0.3,0,0.4c0,0.2,0,0.5,0,0.9C34.9,93.6,35,93.9,35,94.1z"/>
			<path d="M36.8,93.3c0,0.1,0,0.2,0,0.3c0,0.1,0,0.2,0,0.3c0,0.1,0,0.1,0,0.1c0,0,0,0,0,0.1c-0.1,0.1-0.3,0.2-0.6,0.2
				c-0.4,0-0.6-0.3-0.6-0.9c0-0.3,0-0.6,0-1.2c0-0.5,0-0.9,0-1.2c0-0.1,0-0.2-0.1-0.2c-0.1,0-0.1,0-0.2,0c0,0-0.1-0.1-0.1-0.4
				c0-0.1,0-0.2,0-0.3c0-0.1,0-0.1,0.1-0.1c0,0,0.1,0,0.1,0c0.1,0,0.1-0.1,0.1-0.2c0-0.1,0-0.3,0-0.6c0-0.2,0-0.4,0-0.6
				c0-0.2,0-0.3,0.1-0.3c0,0,0.2,0,0.5,0.1c0,0,0.1,0,0.1,0.1c0,0.1,0,0.3,0,0.6c0,0.3,0,0.5,0,0.6c0,0.1,0,0.1,0.1,0.1l0.6,0
				c0,0,0,0,0,0.1c0,0,0,0.1,0,0.2c0,0.1,0,0.1,0,0.2c0,0,0,0.1,0,0.2c0,0.1,0,0.2,0,0.2c0,0.1,0,0.1-0.1,0.1c-0.1,0-0.2,0-0.3,0
				c-0.1,0-0.2,0-0.3,0c0,0,0,0.1,0,0.3c0,0.2,0,0.5,0,0.9v0.7c0,0.3,0,0.4,0,0.5c0,0.2,0.1,0.2,0.2,0.2c0.1,0,0.1,0,0.2-0.1
				C36.6,93.2,36.7,93.2,36.8,93.3C36.8,93.2,36.8,93.2,36.8,93.3z"/>
			<path d="M38.6,89.8c0,0.3,0,0.6,0,0.9c0,0.1,0,0.1-0.1,0.1c0,0-0.1,0-0.2,0c-0.1,0-0.1,0-0.2,0c-0.2,0-0.3,0.1-0.4,0.3
				c0,0.1-0.1,0.4-0.1,0.8v0.5c0,0.2,0,0.4,0,0.8c0,0.3,0,0.6,0,0.8c0,0.1,0,0.1-0.1,0.1c-0.1,0-0.1,0-0.2,0c-0.1,0-0.2,0-0.2,0
				c0,0-0.1,0-0.1-0.1c0-0.2,0-0.6,0-1.1c0-0.5,0-0.9,0-1.1c0-0.7,0-1.3-0.1-1.8c0,0,0,0,0-0.1c0,0,0-0.1,0-0.1c0.1,0,0.1,0,0.3-0.1
				c0.2-0.1,0.3-0.1,0.2-0.1c0,0,0,0.1,0.1,0.3c0,0.2,0,0.3,0,0.3c0,0,0,0,0,0c0.1-0.1,0.1-0.2,0.2-0.2c0.1-0.1,0.2-0.1,0.2-0.2
				c0.1,0,0.1-0.1,0.3-0.1C38.5,89.7,38.6,89.7,38.6,89.8z"/>
			<path d="M41.2,91.8c0,0.6-0.1,1.2-0.3,1.7c-0.2,0.5-0.5,0.7-0.9,0.7c-0.4,0-0.6-0.2-0.9-0.7c-0.2-0.4-0.3-1-0.3-1.6
				c0-0.6,0.1-1.2,0.3-1.6c0.2-0.5,0.5-0.7,0.9-0.7c0.3,0,0.6,0.2,0.9,0.7C41,90.6,41.2,91.1,41.2,91.8z M40.6,91.8
				c0-0.4-0.1-0.7-0.2-0.9c-0.1-0.3-0.3-0.4-0.5-0.4c-0.2,0-0.4,0.2-0.5,0.4c-0.1,0.3-0.2,0.6-0.2,1c0,0.4,0.1,0.7,0.2,0.9
				c0.1,0.3,0.3,0.4,0.5,0.4c0.2,0,0.4-0.2,0.5-0.4C40.6,92.5,40.6,92.2,40.6,91.8z"/>
			<path d="M43.9,89.7c0,0.2,0,0.6,0,1c0,0.5,0,0.8,0,1c0,0.2,0,0.6,0,1c0,0.5,0,0.8,0,1c0,0.1,0,0.1,0,0.1c0,0-0.2,0-0.5,0
				c0,0,0-0.1,0-0.3c0-0.2,0-0.3,0-0.3c0,0,0,0,0,0c-0.3,0.5-0.6,0.7-0.9,0.7c-0.4,0-0.6-0.2-0.7-0.7c-0.1-0.3-0.1-0.8-0.1-1.6
				c0-0.7,0-1.3,0.1-1.8c0-0.1,0-0.2,0.1-0.2c0,0,0.1,0,0.2,0c0.1,0,0.2,0,0.2,0c0,0,0.1,0,0.1,0.1c0,0.1,0,0.3,0,0.6
				c0,0.3,0,0.5,0,0.6c0,0.2,0,0.4,0,0.6c0,0.5,0,0.9,0.1,1.1c0.1,0.3,0.2,0.5,0.5,0.5c0.1,0,0.2-0.1,0.4-0.3
				c0.2-0.2,0.2-0.4,0.2-0.6c0-0.2,0-1,0-2.4c0-0.2,0-0.2,0.1-0.2l0.4,0C43.9,89.6,43.9,89.6,43.9,89.7z"/>
			<path d="M46.2,89.1c0,0.5-0.1,0.9-0.2,1.2c0,0-0.2,0.3-0.4,0.8c-0.2,0.3-0.2,0.6-0.3,0.8c0,0.1,0,0.1,0,0.2c0,0.1,0,0.1-0.1,0.1
				c-0.1,0-0.1,0-0.1,0.1c-0.1,0-0.1,0-0.2,0c0,0-0.1-0.1-0.1-0.2c0-0.4,0-0.7,0.1-0.9c0.1-0.3,0.2-0.5,0.3-0.8
				c0.1-0.3,0.2-0.6,0.2-0.9c0-0.3,0-0.5-0.1-0.7c-0.1-0.2-0.2-0.3-0.4-0.2c-0.1,0-0.3,0.1-0.4,0.3c-0.2,0.2-0.2,0.3-0.2,0.3
				c-0.1,0-0.1-0.3-0.1-0.9c0,0,0-0.1,0.1-0.2c0.3-0.4,0.6-0.5,0.9-0.5c0.3,0,0.5,0.1,0.7,0.5C46.1,88.2,46.2,88.6,46.2,89.1z
				 M45.4,93.4c0,0.2,0,0.3-0.1,0.5C45.3,94,45.2,94,45.1,94c-0.1,0-0.2-0.1-0.2-0.2c-0.1-0.1-0.1-0.3-0.1-0.5c0-0.2,0-0.3,0.1-0.5
				c0.1-0.1,0.1-0.2,0.2-0.2c0.1,0,0.2,0.1,0.2,0.2C45.4,93,45.4,93.2,45.4,93.4z"/>
			<path d="M50.9,92.7c0,0,0,0.1-0.1,0.2c-0.4,0.7-0.8,1.1-1.3,1.1c-0.5,0-1-0.3-1.3-1c-0.3-0.6-0.4-1.4-0.4-2.4s0.2-1.8,0.5-2.4
				c0.3-0.7,0.8-1.1,1.3-1.1c0.5,0,1,0.3,1.3,0.9c0,0.1,0,0.1,0,0.2c0,0.1,0,0.2-0.1,0.5c-0.1,0.3-0.2,0.4-0.2,0.4
				c0,0-0.1-0.1-0.2-0.2c-0.1-0.2-0.2-0.3-0.3-0.4c-0.2-0.1-0.3-0.2-0.5-0.2c-0.4,0-0.6,0.3-0.8,0.7c-0.2,0.4-0.3,1-0.3,1.6
				c0,0.6,0.1,1.2,0.3,1.6c0.2,0.5,0.5,0.7,0.8,0.7c0.2,0,0.3-0.1,0.5-0.2c0.1-0.1,0.2-0.3,0.3-0.4c0.1-0.2,0.1-0.2,0.2-0.2
				c0,0,0.1,0.1,0.2,0.4C50.8,92.5,50.9,92.6,50.9,92.7z"/>
			<path d="M53.6,93.5c0,0.1,0,0.2-0.1,0.2c-0.1,0-0.1,0-0.3,0c-0.1,0-0.2,0-0.3,0c0,0-0.1-0.1-0.1-0.2c0-0.2,0-0.4,0-0.7
				c0-0.3,0-0.5,0-0.7c0-0.1,0-0.4,0-0.7c0-0.3,0-0.5,0-0.7c0-0.6-0.2-0.9-0.5-0.8c-0.1,0-0.2,0.1-0.4,0.3c-0.2,0.2-0.3,0.4-0.3,0.5
				v2.8c0,0.1,0,0.1-0.1,0.1c-0.1,0-0.1,0-0.3,0c-0.1,0-0.2,0-0.3,0c0,0-0.1,0-0.1-0.1v-2.3c0-0.4,0-1.2,0-2.4c0-0.4,0-0.9,0-1.7
				c0,0,0-0.1,0-0.1c0-0.1,0-0.1,0-0.1c0,0,0.1,0,0.3,0c0,0,0.1,0,0.2,0c0.1,0,0.1,0,0.2,0c0,0,0,0,0,0.1c0,0.3,0,0.7,0,1.3
				c0,0.6,0,1,0,1.3c0,0.1,0,0.1,0,0.1c0.1-0.1,0.2-0.3,0.4-0.5c0.2-0.2,0.4-0.3,0.6-0.3c0.3,0,0.6,0.2,0.7,0.5
				c0.1,0.3,0.1,0.7,0.1,1.2c0,0.1,0,0.3,0,0.5c0,0.2,0,0.4,0,0.5c0,0.2,0,0.5,0,0.9C53.6,93,53.6,93.3,53.6,93.5z"/>
			<path d="M56.4,91c0,0.2-0.1,0.4-0.2,0.5c-0.1,0.1-0.7,0.2-1.7,0.3c0,0.3,0.1,0.5,0.3,0.7c0.1,0.2,0.3,0.3,0.5,0.3
				c0.3,0,0.6-0.2,0.8-0.5c0,0,0.1-0.1,0.1-0.1c0,0,0,0,0,0c0,0,0,0.1,0.1,0.3c0.1,0.2,0.1,0.3,0.1,0.3c0,0,0,0.1,0,0.1
				c-0.3,0.5-0.6,0.8-1.1,0.8c-0.4,0-0.8-0.2-1-0.6c-0.3-0.4-0.4-1-0.4-1.8c0-0.7,0.1-1.2,0.4-1.7c0.3-0.5,0.6-0.8,0.9-0.8
				c0.3,0,0.6,0.2,0.9,0.6C56.3,89.9,56.4,90.4,56.4,91z M55.8,90.8c0-0.3-0.1-0.5-0.2-0.7c-0.1-0.2-0.3-0.3-0.4-0.3
				c-0.2,0-0.3,0.1-0.5,0.4c-0.1,0.2-0.2,0.5-0.2,0.8c0,0.1,0,0.1,0.1,0.1c0.3,0,0.6-0.1,1-0.2C55.7,90.8,55.8,90.8,55.8,90.8z"/>
			<path d="M59.3,89c0,0.4,0,1,0,1.8c0,0.8,0,1.4,0,1.8c0,0.8-0.1,1.3-0.3,1.7c-0.2,0.4-0.5,0.6-1,0.6c-0.4,0-0.8-0.1-1-0.4
				c0,0-0.1-0.1-0.1-0.1c0,0,0-0.2,0.1-0.7c0-0.1,0-0.1,0-0.1c0,0,0,0,0,0c0.3,0.3,0.6,0.4,0.8,0.4c0.2,0,0.3-0.1,0.5-0.2
				c0.1-0.2,0.2-0.4,0.2-0.7c0-0.1,0-0.2,0-0.5c-0.2,0.4-0.5,0.7-0.8,0.7c-0.3,0-0.6-0.2-0.9-0.6c-0.2-0.4-0.3-0.9-0.3-1.5
				c0-0.6,0.1-1.1,0.3-1.6c0.2-0.5,0.5-0.7,0.9-0.7c0.3,0,0.6,0.2,0.7,0.6c0,0.1,0.1,0.1,0.1,0.1c0,0,0,0,0-0.1c0,0,0-0.1,0-0.2
				c0-0.1,0-0.2,0-0.2c0-0.2,0-0.3,0-0.3c0,0,0.1,0,0.3,0.1c0.2,0.1,0.3,0.1,0.3,0.1C59.3,88.9,59.3,88.9,59.3,89z M58.6,91
				c0-0.4-0.1-0.7-0.2-0.9c-0.1-0.3-0.3-0.4-0.5-0.4c-0.2,0-0.4,0.2-0.5,0.4c-0.1,0.3-0.2,0.6-0.2,0.9c0,0.4,0.1,0.7,0.2,0.9
				c0.1,0.3,0.3,0.4,0.5,0.4c0.2,0,0.4-0.1,0.5-0.4C58.6,91.7,58.6,91.4,58.6,91z"/>
			<path d="M62.5,91.1c0,0.7-0.1,1.3-0.4,1.8c-0.3,0.5-0.6,0.8-1,0.8c-0.4,0-0.7-0.2-1-0.7c-0.3-0.5-0.4-1-0.4-1.7
				c0-0.7,0.1-1.3,0.4-1.7c0.3-0.5,0.6-0.8,1-0.8c0.4,0,0.7,0.2,1,0.7C62.3,89.8,62.5,90.4,62.5,91.1z M61.8,91.1
				c0-0.4-0.1-0.7-0.2-1c-0.1-0.3-0.3-0.4-0.6-0.4c-0.2,0-0.4,0.2-0.6,0.5c-0.1,0.3-0.2,0.6-0.2,1c0,0.4,0.1,0.7,0.2,1
				c0.2,0.3,0.3,0.4,0.6,0.4c0.2,0,0.4-0.2,0.6-0.5C61.8,91.8,61.8,91.5,61.8,91.1z"/>
			<path d="M65.6,88.9c0,0.2,0,0.6,0,1.1c0,0.5,0,0.9,0,1.1c0,0.2,0,0.6,0,1.1c0,0.5,0,0.8,0,1.1c0,0.1,0,0.1-0.1,0.1
				c0,0-0.2,0-0.6,0c0,0,0-0.1,0-0.4c0-0.2,0-0.4,0-0.4c0,0,0,0,0,0c-0.3,0.5-0.6,0.7-1,0.7c-0.4,0-0.7-0.2-0.9-0.8
				c-0.1-0.3-0.1-0.9-0.1-1.7c0-0.8,0-1.4,0.1-1.9c0-0.1,0-0.2,0.1-0.2c0.1,0,0.1,0,0.3,0c0.1,0,0.2,0,0.3,0c0,0,0.1,0,0.1,0.1
				c0,0.1,0,0.3,0,0.6c0,0.3,0,0.5,0,0.7c0,0.2,0,0.4,0,0.6c0,0.6,0,1,0.1,1.2c0.1,0.4,0.3,0.5,0.6,0.5c0.1,0,0.3-0.1,0.4-0.3
				c0.2-0.2,0.3-0.4,0.3-0.6c0-0.2,0-1.1,0-2.6c0-0.2,0-0.2,0.1-0.2l0.5,0C65.5,88.7,65.6,88.8,65.6,88.9z"/>
			<path d="M67,92.8c0,0.2,0,0.4-0.1,0.5c-0.1,0.1-0.2,0.2-0.3,0.2c-0.1,0-0.2-0.1-0.3-0.2c-0.1-0.1-0.1-0.3-0.1-0.5
				c0-0.2,0-0.4,0.1-0.5c0.1-0.1,0.2-0.2,0.3-0.2c0.1,0,0.2,0.1,0.3,0.2C67,92.4,67,92.6,67,92.8z M67,87.6c0,0.8,0,1.6-0.1,2.3
				c0,0.3-0.1,0.7-0.1,1.2c0,0.1-0.1,0.2-0.2,0.2c-0.1,0-0.1,0-0.1,0c0,0-0.1-0.1-0.1-0.1c-0.1-1-0.2-1.6-0.2-1.9v-2.7
				c0-0.1,0-0.2,0-0.2c0,0,0.1,0,0.2,0c0.1,0,0.1,0,0.2,0c0,0,0.1,0,0.2,0c0.1,0,0.1,0,0.2,0c0,0,0,0.1,0,0.2c0,0.1,0,0.3,0,0.5
				C67,87.3,67,87.5,67,87.6z"/>
		</g>
	</g>
</g>
</svg>
