<?xml version="1.0" encoding="utf-8"?>
<!-- Generator: Adobe Illustrator 22.0.0, SVG Export Plug-In . SVG Version: 6.00 Build 0)  -->
<svg version="1.1" id="Layer_1" xmlns="http://www.w3.org/2000/svg" xmlns:xlink="http://www.w3.org/1999/xlink" x="0px" y="0px"
	 viewBox="0 0 150 39" style="enable-background:new 0 0 150 39;" xml:space="preserve">
<style type="text/css">
	.st0{fill:#009ac0;}
</style>
<g>
	<path d="M25.4,30.1c0,0.3-0.1,0.5-0.5,0.5c-0.2,0-0.9-0.1-2-0.4c-1.1-0.3-1.8-0.4-2-0.5c-2.5,1-4.9,1.5-7.2,1.5
		c-3.7,0-6.8-1.2-9.2-3.7C2.2,25,1,21.9,1,18.2c0-3.8,1.1-7,3.4-9.5c2.4-2.6,5.4-3.9,9.2-3.9c1.8,0,3.5,0.3,5.2,1
		c1.7,0.8,3.1,1.9,4.1,3.2c0.2,0.3,0.3,0.5,0.3,0.6c0,0.4-0.5,1.2-1.6,2.6c-1.1,1.3-1.8,2-2.1,2c-0.1,0-0.3-0.2-0.8-0.7
		c-0.6-0.6-1.2-1-1.8-1.4c-0.9-0.5-1.9-0.7-3-0.7c-1.8,0-3.2,0.7-4.3,2c-1,1.2-1.5,2.8-1.5,4.6c0,2,0.5,3.5,1.5,4.7
		c1.1,1.2,2.6,1.8,4.5,1.8c1.2,0,2.6-0.3,4.1-0.9c0-0.4-0.1-1.4-0.3-3c-0.2-1.3-0.2-2.3-0.2-3c0-0.2,0.1-0.4,0.2-0.4
		c0.1,0,0.2,0,0.3,0c0.3,0,0.9,0,1.6,0.1c0.7,0.1,1.2,0.1,1.6,0.1c0.4,0,1,0,1.7-0.1s1.3-0.1,1.7-0.1c0.3,0,0.5,0.2,0.5,0.6
		c0,0.6,0,1.5-0.1,2.6c-0.1,1.2-0.1,2-0.1,2.6c0,1.6,0.1,3.9,0.3,7L25.4,30.1z"/>
	<path d="M35.3,17.4c0,1.4,0,3.6,0.1,6.4c0.1,2.9,0.1,5,0.1,6.4c0,0.2-0.1,0.4-0.2,0.5c0,0-0.2,0-0.5,0.1c-0.8,0.1-1.8,0.1-3.1,0.1
		c-1.8,0-2.9,0-3.4-0.1c-0.3-0.1-0.5-0.3-0.5-0.6c0,0.2,0.1-0.9,0.2-3.2c0.2-4.9,0.3-8.1,0.3-9.6c0-1.3,0-3.2-0.1-5.8
		c-0.1-2.6-0.1-4.5-0.1-5.8c0-0.3,0.1-0.4,0.4-0.4c0.4,0,0.9,0,1.7,0.1c0.8,0,1.3,0.1,1.7,0.1c0.4,0,0.9,0,1.7-0.1
		c0.7,0,1.3-0.1,1.7-0.1c0.3,0,0.5,0.1,0.5,0.4c0,1.3-0.1,3.2-0.2,5.8C35.3,14.1,35.3,16.1,35.3,17.4z"/>
	<path d="M60,26.6c0,0.2-0.1,0.4-0.4,0.8c-2.2,2.6-5.2,4-8.8,4c-3.8,0-6.8-1.3-9.1-3.8c-2.3-2.5-3.4-5.6-3.4-9.4
		c0-3.7,1.1-6.8,3.3-9.3c2.3-2.7,5.3-4,8.9-4c3.9,0,7,1.2,9.2,3.6C59.9,8.6,60,8.9,60,9.1c0,0.2-0.4,1.1-1.3,2.5
		c-0.8,1.5-1.4,2.3-1.6,2.5c-0.1,0.1-0.2,0.1-0.4,0.1c-0.1,0-0.4-0.2-0.9-0.7c-0.6-0.6-1.3-1-1.9-1.4c-1-0.5-1.9-0.7-3-0.7
		c-1.8,0-3.2,0.7-4.2,2c-1,1.2-1.5,2.7-1.5,4.5c0,1.8,0.5,3.4,1.5,4.6c1.1,1.3,2.5,2,4.2,2c1,0,2-0.2,3-0.7c0.6-0.3,1.2-0.7,1.9-1.3
		c0.5-0.5,0.8-0.7,0.9-0.7c0.1,0,0.2,0.1,0.4,0.2c0.2,0.2,0.7,1,1.6,2.3C59.6,25.8,60,26.5,60,26.6z"/>
	<path d="M85.8,30.3c0,0.2-0.2,0.4-0.5,0.5c-0.4,0.1-1.5,0.1-3.4,0.1c-1.7,0-2.8,0-3.3-0.1c-0.4-0.1-0.7-0.4-0.8-0.8
		c-0.4-1.7-0.7-2.7-1-2.8C76.7,27,75.1,27,72.1,27c-2,0-3.1,0.1-3.3,0.2c-0.2,0.2-0.4,0.8-0.7,1.9c-0.2,1-0.5,1.5-0.8,1.6
		c-0.4,0.1-1.8,0.1-4.1,0.1c-1.8,0-2.8-0.2-2.8-0.5c0-0.3,1.4-4.2,4.1-11.5c2.9-8,4.5-12.4,4.8-13.2c0.1-0.5,0.3-0.7,0.5-0.7
		c0.3,0,0.8,0,1.5,0.1c0.7,0.1,1.2,0.1,1.5,0.1c0.3,0,0.8,0,1.4-0.1S75.4,5,75.7,5c0.2,0,0.4,0.2,0.6,0.6c0.6,1.3,2.3,5.6,5.2,13
		C84.4,26,85.8,29.9,85.8,30.3z M73,13.8c-0.3,0.5-0.7,1.7-1.3,3.4c-0.6,1.9-1,3-1,3.3c0,0.2,0.4,0.3,1.1,0.4c0.4,0,1,0,1.8,0
		c0.8,0,1.2-0.1,1.3-0.3c0-0.1,0-0.1,0-0.3c0-0.4-0.3-1.5-0.8-3.3C73.6,15.4,73.2,14.3,73,13.8z"/>
	<path class="st0" d="M109,22.9c0,2.2-0.7,4-2.1,5.5c-1.6,1.7-4.3,2.5-8.3,2.5c-0.3,0-0.7,0-1.3,0c-0.6,0-1,0-1.3,0
		c-4.4,0-7.1-0.1-7.9-0.3c-0.3-0.1-0.5-0.3-0.5-0.6c0-1.3,0.1-3.2,0.2-5.8c0.2-2.6,0.2-4.6,0.2-5.9c0-1.4-0.1-4-0.2-7.9
		c0-1-0.1-2.5-0.2-4.4l0-0.3c0-0.2,0.2-0.4,0.6-0.4c0.4,0,1.8-0.1,4.2-0.1c3.8,0,6.1,0,6.7,0c3,0.1,5.1,0.6,6.6,1.4
		c1.9,1.1,2.8,3.1,2.8,5.8c0,0.7-0.2,1.5-0.7,2.3c-0.3,0.6-0.7,1.1-1.2,1.7c-0.4,0.5-0.7,0.7-0.7,0.7c0,0.1,0.2,0.2,0.5,0.4
		c0.8,0.5,1.5,1.2,2,2.3C108.7,20.8,109,21.8,109,22.9z M101.2,12.7c0-1-0.5-1.7-1.6-2.1c-0.6-0.2-1.5-0.3-2.9-0.3
		c-1.3,0-1.9,0.1-1.9,0.3c0,0.2,0,0.6-0.1,1c0,0.5-0.1,0.8-0.1,1c0,1.2,0.1,1.9,0.3,2c0.1,0.1,0.9,0.2,2.3,0.2
		C99.9,15,101.2,14.2,101.2,12.7z M101.7,22.8c0-1.1-0.5-1.8-1.4-2.2c-0.6-0.2-1.5-0.4-2.8-0.4c-1.6,0-2.4,0.1-2.5,0.2
		c-0.1,0.1-0.2,0.9-0.2,2.2c0,1.4,0.1,2.2,0.2,2.4s1,0.2,2.6,0.2c1.3,0,2.2-0.1,2.7-0.3C101.3,24.6,101.7,23.9,101.7,22.8z"/>
	<path class="st0" d="M132.8,21.8c0,3.1-0.4,5.2-1.1,6.3c-1.3,2-4.7,3.1-10.1,3.1c-2.4,0-4.3-0.2-5.6-0.6c-2.1-0.6-3.5-1.8-4.1-3.4
		c-0.3-0.8-0.5-2.3-0.5-4.4c0-0.5,0-1.2,0.1-2.2s0.1-1.7,0.1-2.2c0-1.4-0.1-3.5-0.2-6.3s-0.2-4.9-0.2-6.3c0-0.3,0.1-0.4,0.4-0.4
		c0.7,0,1.8,0,3.3,0.1c1.5,0.1,2.6,0.1,3.3,0.1c0.3,0,0.5,0.1,0.5,0.4c0,1.6-0.1,4-0.2,7.1c-0.1,3.2-0.2,5.6-0.2,7.1
		c0,1.9,0.2,3.2,0.6,3.8c0.5,0.9,1.6,1.4,3.3,1.4c2.5,0,3.7-1.2,3.7-3.6c0-1.7,0-4.4-0.1-7.9c-0.1-3.5-0.1-6.1-0.1-7.9
		c0-0.4,0.2-0.6,0.5-0.6c0.7,0,1.8,0,3.2-0.1c1.4-0.1,2.5-0.1,3.2-0.1c0.3,0,0.5,0.1,0.5,0.4c0,1.4-0.1,3.5-0.2,6.3
		s-0.2,4.9-0.2,6.3c0,0.4,0,1,0,1.7C132.8,20.9,132.8,21.5,132.8,21.8z"/>
	<path class="st0" d="M148.7,22.4c0,2.4-1,4.5-3.1,6.3c-1.8,1.5-4,2.5-6.6,2.9c-0.1,0-0.2,0-0.2,0c-0.3,0-0.9-0.8-1.8-2.5
		s-1.4-2.7-1.4-3.1c0-0.1,0.1-0.2,0.3-0.3c1.7-0.4,2.9-0.7,3.5-1c1.3-0.6,1.9-1.6,1.9-2.8c0-0.8-0.4-1.7-1.2-2.6
		c-1.4-1.6-2.2-2.5-2.3-2.7c-0.8-1.3-1.2-2.6-1.2-4.2c0-2.2,1-4,3.1-5.5c1.7-1.2,3.7-2,6.1-2.3c0.1,0,0.2,0,0.3,0
		c0.2,0,0.3,0.1,0.4,0.4c0.3,0.9,1,2.5,2.2,4.8c0,0.1,0.1,0.1,0.1,0.2c0,0.2-0.1,0.3-0.3,0.3c-0.1,0-0.3,0-0.5-0.1s-0.4-0.1-0.5-0.1
		c-0.9,0-1.6,0.2-2.3,0.6c-0.8,0.5-1.2,1.1-1.2,1.9c0,0.7,0.4,1.6,1.3,2.7c1.5,1.9,2.3,2.9,2.4,3C148.2,19.8,148.7,21.1,148.7,22.4z
		"/>
</g>
</svg>
